<svg xmlns="http://www.w3.org/2000/svg" width="19" height="16" viewBox="0 0 19 16">
    <g fill="none" fill-rule="evenodd">
        <g fill="#F5A623">
            <g>
                <g>
                    <path d="M17.053 5.832l-5.425-.774L9.202.23C9.133.115 9.007.044 8.871.044s-.262.071-.332.186L6.113 5.057l-5.427.775c-.14.02-.255.116-.299.247-.043.131-.007.275.093.372l3.927 3.758-.926 5.307c-.024.136.033.273.147.354.113.081.264.092.388.028l4.853-2.505 4.854 2.504c.124.064.275.053.388-.028.114-.081.171-.218.147-.355l-.926-5.305 3.927-3.758c.1-.097.136-.24.093-.372-.044-.131-.16-.227-.299-.247z" transform="translate(-742 -1026) translate(650 1026) translate(92.243)"/>
                </g>
            </g>
        </g>
    </g>
</svg>
