<?xml version="1.0" encoding="utf-8"?>
<!-- Generator: Adobe Illustrator 25.0.0, SVG Export Plug-In . SVG Version: 6.00 Build 0)  -->
<svg version="1.1" id="Layer_1" xmlns="http://www.w3.org/2000/svg" xmlns:xlink="http://www.w3.org/1999/xlink" x="0px" y="0px"
	 viewBox="0 0 83 83" style="enable-background:new 0 0 83 83;" xml:space="preserve">
<style type="text/css">
	.st0{fill-rule:evenodd;clip-rule:evenodd;fill:#FFFFFF;stroke:#FFEDDA;}
	.st1{fill:#FDB600;}
	.st2{fill:#FFDB7F;}
</style>
<g id="Designs">
	<g id="Brute-Brothers-Home" transform="translate(-757.000000, -3335.000000)">
		<g id="Group-37" transform="translate(757.000000, 3335.000000)">
			<path id="Rectangle" class="st0" d="M10.5,0.5h62c5.5,0,10,4.5,10,10v62c0,5.5-4.5,10-10,10h-62c-5.5,0-10-4.5-10-10v-62
				C0.5,5,5,0.5,10.5,0.5z"/>
			<g id="Group-7" transform="translate(19.000000, 19.000000)">
				<g id="key">
					<g>
						<path id="Path" class="st1" d="M40,27.5v5c0,0.3,0.2,0.5,0.5,0.5s0.5-0.2,0.5-0.5v-5c0-0.3-0.2-0.5-0.5-0.5S40,27.2,40,27.5z"
							/>
						<path id="Path_1_" class="st1" d="M2.5,10h5C7.8,10,8,9.8,8,9.5S7.8,9,7.5,9h-5C2.2,9,2,9.2,2,9.5S2.2,10,2.5,10z"/>
						<path id="Path_2_" class="st1" d="M29.5,36.5c-0.3,0-0.5,0.2-0.5,0.5v5c0,0.3,0.2,0.5,0.5,0.5S30,42.3,30,42v-5
							C30,36.7,29.8,36.5,29.5,36.5z"/>
						<path id="Path_3_" class="st1" d="M36.5,35.5c-0.3,0-0.5,0.2-0.5,0.5v3c0,0.3,0.2,0.5,0.5,0.5S37,39.3,37,39v-3
							C37,35.7,36.8,35.5,36.5,35.5z"/>
						<path id="Path_4_" class="st1" d="M3.5,16C3.2,16,3,16.2,3,16.5S3.2,17,3.5,17h3C6.8,17,7,16.8,7,16.5S6.8,16,6.5,16H3.5z"/>
						<path id="Path_5_" class="st1" d="M11.5,23c0.3,0,0.5-0.2,0.5-0.5S11.8,22,11.5,22h-2C9.2,22,9,22.2,9,22.5S9.2,23,9.5,23
							H11.5z"/>
						<path id="Path_6_" class="st1" d="M21.5,32.5c-0.3,0-0.5,0.2-0.5,0.5v5c0,0.3,0.2,0.5,0.5,0.5S22,38.3,22,38v-5
							C22,32.7,21.8,32.5,21.5,32.5z"/>
						<path id="Path_7_" class="st1" d="M8.5,26C8.8,26,9,25.8,9,25.5S8.8,25,8.5,25h-5C3.2,25,3,25.2,3,25.5S3.2,26,3.5,26H8.5z"/>
						<path id="Shape" class="st1" d="M41,41.1v-4.3c0-0.7-0.3-1.3-0.7-1.8l-2.8-2.8c-0.3-0.3-0.4-0.7-0.4-1.1V27
							c4.2-2.4,7-6.9,7-12.1c0-7.7-6.3-14-14-14c-3.3,0-6.3,1.1-8.6,3H17c-0.3,0-0.5,0.2-0.5,0.5C16.5,4.7,16.7,5,17,5h3.2
							c-0.9,0.9-1.7,1.9-2.3,3h-3.6c-0.4,0-0.8-0.2-1.1-0.4l-1.8-1.8C11,5.3,10.3,5,9.7,5H8.9C8.7,4.4,8.2,4,7.5,4
							C6.7,4,6,4.7,6,5.5S6.7,7,7.5,7c0.7,0,1.2-0.4,1.4-1h0.8c0.4,0,0.8,0.2,1.1,0.4l1.8,1.8C13,8.7,13.7,9,14.3,9h3
							c-0.5,0.9-0.8,1.9-1,3H9.9c-0.2-0.6-0.8-1-1.4-1C7.7,11,7,11.7,7,12.5S7.7,14,8.5,14c0.7,0,1.2-0.4,1.4-1h6.3
							c-0.1,0.7-0.2,1.3-0.2,2h-3.2c-0.7,0-1.3,0.3-1.8,0.7l-4.8,4.8c-0.3,0.3-0.6,0.5-1,0.5H2.9c-0.2-0.6-0.8-1-1.4-1
							C0.7,20,0,20.7,0,21.5S0.7,23,1.5,23c0.7,0,1.2-0.4,1.4-1h2.3c0.7,0,1.3-0.3,1.8-0.7l4.8-4.8c0.3-0.3,0.7-0.4,1.1-0.4h3.2
							c0.1,0.7,0.2,1.5,0.3,2.2L15,19.6c-0.6,0.6-1,1.5-1,2.4c0,0.7,0.2,1.4,0.6,2L0.3,38.3C0.1,38.5,0,38.7,0,39v5c0,0.6,0.4,1,1,1
							h5c0.3,0,0.5-0.1,0.7-0.3l2-2c0.1-0.1,0.2-0.2,0.2-0.4L9.7,40H11c0.4,0,0.8-0.3,0.9-0.7l0.8-2.3H14c0.4,0,0.8-0.3,0.9-0.7
							l0.8-2.3H17c0.3,0,0.5-0.1,0.7-0.3l3.3-3.3c0.6,0.4,1.2,0.6,2,0.6l0,0c0.9,0,1.8-0.4,2.4-1l1.4-1.4c0.7,0.2,1.5,0.3,2.2,0.3
							v2.2c0,0.4-0.2,0.8-0.4,1.1L24.8,36c-0.5,0.5-0.7,1.1-0.7,1.8v2.3c-0.6,0.2-1,0.8-1,1.4c0,0.8,0.7,1.5,1.5,1.5
							c0.8,0,1.5-0.7,1.5-1.5c0-0.7-0.4-1.2-1-1.4v-2.3c0-0.4,0.2-0.8,0.4-1.1l3.8-3.8c0.5-0.5,0.7-1.1,0.7-1.8V29c1,0,2-0.1,3-0.3
							v10.4c-0.6,0.2-1,0.8-1,1.4c0,0.8,0.7,1.5,1.5,1.5s1.5-0.7,1.5-1.5c0-0.7-0.4-1.2-1-1.4V28.4c0.7-0.2,1.4-0.5,2-0.8v3.5
							c0,0.7,0.3,1.3,0.7,1.8l2.8,2.8c0.3,0.3,0.4,0.7,0.4,1.1v4.3c-0.6,0.2-1,0.8-1,1.4c0,0.8,0.7,1.5,1.5,1.5
							c0.8,0,1.5-0.7,1.5-1.5C42,41.8,41.6,41.3,41,41.1z M7.5,6C7.2,6,7,5.8,7,5.5S7.2,5,7.5,5S8,5.2,8,5.5S7.8,6,7.5,6z M8.5,13
							C8.2,13,8,12.8,8,12.5S8.2,12,8.5,12S9,12.2,9,12.5S8.8,13,8.5,13z M1.5,22C1.2,22,1,21.8,1,21.5S1.2,21,1.5,21S2,21.2,2,21.5
							S1.8,22,1.5,22z M24.5,42c-0.3,0-0.5-0.2-0.5-0.5s0.2-0.5,0.5-0.5s0.5,0.2,0.5,0.5S24.8,42,24.5,42z M16.6,32H15
							c-0.4,0-0.8,0.3-0.9,0.7L13.3,35H12c-0.4,0-0.8,0.3-0.9,0.7L10.3,38H9c-0.4,0-0.8,0.3-0.9,0.7l-0.9,2.8L5.6,43H2v-3.6l14-14
							l0.9,0.9L5.1,38.1c-0.2,0.2-0.2,0.5,0,0.7C5.2,39,5.4,39,5.5,39s0.3,0,0.4-0.1l11.8-11.8l1.9,1.9L16.6,32z M24,28.6
							c-0.3,0.3-0.6,0.4-1,0.4l0,0c-0.4,0-0.7-0.1-1-0.4L16.4,23c-0.3-0.3-0.4-0.6-0.4-1s0.1-0.7,0.4-1l0.7-0.7
							c1.4,3.4,4.2,6.2,7.6,7.6L24,28.6z M33.5,41c-0.3,0-0.5-0.2-0.5-0.5s0.2-0.5,0.5-0.5s0.5,0.2,0.5,0.5S33.8,41,33.5,41z M30,27
							c-6.6,0-12-5.4-12-12S23.4,3,30,3s12,5.4,12,12S36.6,27,30,27z M40.5,43c-0.3,0-0.5-0.2-0.5-0.5s0.2-0.5,0.5-0.5
							s0.5,0.2,0.5,0.5S40.8,43,40.5,43z"/>
						<path id="Shape_1_" class="st1" d="M30,5c-5.5,0-10,4.5-10,10s4.5,10,10,10s10-4.5,10-10S35.5,5,30,5z M30,24c-5,0-9-4-9-9
							s4-9,9-9s9,4,9,9S35,24,30,24z"/>
					</g>
				</g>
				<g id="emblem-07">
					<g transform="translate(23.000000, 9.000000)">
						<path id="Path_8_" class="st2" d="M11.2,5.3c0.1-0.2,0.3-0.6,0.3-0.9c0-0.6-0.2-1.1-0.7-1.5c-0.3-0.2-0.5-0.4-0.9-0.5v-2
							L8.8,0v2.3H7.3c0.2,0.1,0.4,0.2,0.6,0.4l0,0c0.2,0.2,0.4,0.5,0.6,0.8C8.6,3.6,8.7,3.8,8.7,4H9c0.3,0,0.5,0.2,0.5,0.5
							C9.5,4.8,9.2,5,8.9,5c-0.1,0-0.2,0-0.4,0c0,0,0,0.1,0,0.1c0.1,0.1,0.2,0.2,0.3,0.2C9,5.6,9.1,5.8,9.3,6
							c0.1,0.2,0.2,0.3,0.2,0.5c0.1,0,0.2,0,0.3,0c0.2,0,0.4,0.1,0.6,0.2c0.2,0.1,0.2,0.3,0.2,0.5c0,0.4-0.4,0.7-0.8,0.7H9.5
							c0,0.1-0.1,0.3-0.1,0.4C9.3,8.6,9.1,8.9,8.8,9.2l0,0l0,0C8.6,9.4,8.4,9.6,8.1,9.7h0.7v1.9L9.9,12V9.7c0.7,0,1.3-0.3,1.7-0.7
							c0.5-0.5,0.7-1,0.7-1.7C12.3,6.4,11.9,5.6,11.2,5.3z"/>
						<path id="Shape_2_" class="st2" d="M8.2,5.3c0.1-0.2,0.3-0.6,0.3-0.9c0-0.6-0.2-1.1-0.7-1.5C7.3,2.6,6.8,2.3,6.3,2.3V0.4
							L5.2,0v2.3l-2.7,0c-0.1,0-0.2,0.1-0.2,0.2l0,0c0,0.1,0.1,0.2,0.2,0.2h3.8L6,3.1H3.8v1H3.1C3,4,3,4.1,3,4.2l0,0
							C3,4.3,3,4.4,3.1,4.4H5L4.7,4.8H3.8v1H1.3C1.2,5.8,1.1,5.9,1.1,6l0,0c0,0.1,0.1,0.2,0.2,0.2H5L4.7,6.6H3.8v1H2.5
							c-0.1,0-0.2,0.1-0.2,0.2l0,0c0,0.1,0.1,0.2,0.2,0.2h2.2L4.5,8.3H3.8v1H0.5c-0.1,0-0.2,0.1-0.2,0.2l0,0c0,0.1,0.1,0.2,0.2,0.2
							l4.7,0v1.9L6.3,12V9.7h0.4c0.8,0,1.4-0.2,1.9-0.7c0.5-0.5,0.7-1,0.7-1.7C9.3,6.4,8.9,5.6,8.2,5.3z M5.6,4H6
							c0.3,0,0.5,0.2,0.5,0.5C6.5,4.8,6.2,5,5.9,5c-0.1,0-0.3,0-0.4,0V4z M6.7,7.9H5.6V6.4c0.4,0,0.7,0,1.2,0c0.2,0,0.4,0.1,0.6,0.2
							C7.4,6.8,7.5,7,7.5,7.2C7.5,7.6,7.1,7.9,6.7,7.9L6.7,7.9z"/>
					</g>
				</g>
			</g>
		</g>
	</g>
</g>
</svg>
