<?xml version="1.0" encoding="utf-8"?>
<!-- Generator: Adobe Illustrator 25.0.0, SVG Export Plug-In . SVG Version: 6.00 Build 0)  -->
<svg version="1.1" id="Layer_1" xmlns="http://www.w3.org/2000/svg" xmlns:xlink="http://www.w3.org/1999/xlink" x="0px" y="0px"
	 viewBox="0 0 83 83" style="enable-background:new 0 0 83 83;" xml:space="preserve">
<style type="text/css">
	.st0{fill-rule:evenodd;clip-rule:evenodd;fill:#FFFFFF;}
	.st1{fill:#FFEDDA;}
	.st2{fill:#FDB600;}
	.st3{fill:#FFDB7F;}
</style>
<g id="Rectangle">
	<path class="st0" d="M10.5,0.5h62c5.5,0,10,4.5,10,10v62c0,5.5-4.5,10-10,10h-62c-5.5,0-10-4.5-10-10v-62C0.5,5,5,0.5,10.5,0.5z"/>
	<path class="st1" d="M72.5,83h-62C4.7,83,0,78.3,0,72.5v-62C0,4.7,4.7,0,10.5,0h62C78.3,0,83,4.7,83,10.5v62
		C83,78.3,78.3,83,72.5,83z M10.5,1C5.3,1,1,5.3,1,10.5v62c0,5.2,4.3,9.5,9.5,9.5h62c5.2,0,9.5-4.3,9.5-9.5v-62
		C82,5.3,77.7,1,72.5,1H10.5z"/>
</g>
<g id="Key-bitcoin">
	<g transform="translate(18.083333, 21.000000)">
		<g id="Shape">
			<path class="st2" d="M39.6,20.2h-5.2l-2-2.7c0.9-1.4,1.4-3,1.5-4.7h2.9c0.4,1.3,1.7,2,3.1,1.8c1.3-0.2,2.3-1.4,2.3-2.7
				s-1-2.5-2.3-2.7C38.6,9,37.3,9.7,36.8,11h-2.9c-0.1-1.6-0.6-3.2-1.5-4.7l2-2.7h5.2c0.4,1.3,1.7,2,3.1,1.8s2.3-1.4,2.3-2.7
				s-1-2.5-2.3-2.7S40,0.6,39.6,1.8h-5.7c-0.6,0-0.6,0.2-2.7,2.9c-2.1-2.4-5.1-3.8-8.3-3.8s-6.2,1.4-8.3,3.8c-2-2.7-2-2.9-2.7-2.9
				H6.3C5.8,0.6,4.5-0.2,3.2,0S0.9,1.4,0.9,2.8s1,2.5,2.3,2.7s2.6-0.5,3.1-1.8h5.2l2,2.7c-0.8,1.4-1.4,3-1.5,4.7H9
				C8.6,9.7,7.3,9,5.9,9.2s-2.3,1.4-2.3,2.7s1,2.5,2.3,2.7s2.6-0.5,3.1-1.8h2.9c0.1,1.7,0.6,3.3,1.5,4.7l-2,2.7H6.3
				c-0.4-1.3-1.7-2-3.1-1.8s-2.3,1.4-2.3,2.7c0,1.3,1,2.5,2.3,2.7s2.6-0.5,3.1-1.8h5.7c0.6,0,0.6-0.2,2.6-2.9
				c1.5,1.7,3.4,2.9,5.6,3.5v5.8h-1.8c-0.5,0-0.9,0.4-0.9,0.9v3.9c0,0.5,0.4,0.9,0.9,0.9h1.8v1.6h-1.8c-0.5,0-0.9,0.4-0.9,0.9
				c0,3-0.1,3,0.3,3.4c4,4,3.8,3.9,4.3,3.9s0.3,0.1,4.3-3.9c0.4-0.4,0.3,0.9,0.3-17.8c1.8-0.6,3.4-1.8,4.7-3.2l1.9,2.6
				c0.4,0.5,0.2,0.4,6.4,0.4c0.4,1.3,1.7,2,3.1,1.8c1.3-0.2,2.3-1.4,2.3-2.7c0-1.3-1-2.5-2.3-2.7C41.3,18.1,40,18.9,39.6,20.2
				L39.6,20.2z M42.1,1.8c0.5,0,0.9,0.4,0.9,0.9s-0.4,0.9-0.9,0.9s-0.9-0.4-0.9-0.9S41.6,1.8,42.1,1.8z M3.7,3.7
				c-0.5,0-0.9-0.4-0.9-0.9s0.4-0.9,0.9-0.9s0.9,0.4,0.9,0.9S4.2,3.7,3.7,3.7z M3.7,22c-0.5,0-0.9-0.4-0.9-0.9
				c0-0.5,0.4-0.9,0.9-0.9s0.9,0.4,0.9,0.9C4.6,21.6,4.2,22,3.7,22z M39.4,11c0.5,0,0.9,0.4,0.9,0.9s-0.4,0.9-0.9,0.9
				c-0.5,0-0.9-0.4-0.9-0.9S38.9,11,39.4,11z M6.4,12.8c-0.5,0-0.9-0.4-0.9-0.9S5.9,11,6.4,11s0.9,0.4,0.9,0.9S6.9,12.8,6.4,12.8z
				 M25.4,20.7c-0.4,0.1-0.7,0.5-0.7,0.9v17.4L22,41.8l-2.7-2.7v-1.5h1.8c0.5,0,0.9-0.4,0.9-0.9v-3.4c0-0.5-0.4-0.9-0.9-0.9h-1.8
				v-2.1h1.8c0.5,0,0.9-0.4,0.9-0.9v-7.5c0-0.4-0.3-0.8-0.8-0.9c-4.6-0.8-7.8-5-7.5-9.6c0.3-4.6,4-8.3,8.7-8.5
				c4.6-0.2,8.7,3.1,9.5,7.7C32.7,15,29.9,19.4,25.4,20.7L25.4,20.7z M42.1,22c-0.5,0-0.9-0.4-0.9-0.9c0-0.5,0.4-0.9,0.9-0.9
				s0.9,0.4,0.9,0.9C43.1,21.6,42.6,22,42.1,22z"/>
		</g>
	</g>
</g>
<g transform="translate(34.000000, 27.000000)">
	<g id="Path">
		<path class="st3" d="M11.2,5.3c0.1-0.2,0.3-0.6,0.3-0.9c0-0.6-0.2-1.1-0.7-1.5c-0.3-0.2-0.5-0.4-0.9-0.5v-2L8.8,0v2.3H7.3
			c0.2,0.1,0.4,0.2,0.6,0.4l0,0c0.2,0.2,0.4,0.5,0.6,0.8C8.6,3.6,8.7,3.8,8.7,4H9c0.3,0,0.5,0.2,0.5,0.5C9.5,4.8,9.2,5,8.9,5
			c-0.1,0-0.2,0-0.4,0c0,0,0,0.1,0,0.1c0.1,0.1,0.2,0.2,0.3,0.2C9,5.6,9.1,5.8,9.3,6c0.1,0.2,0.2,0.3,0.2,0.5c0.1,0,0.2,0,0.3,0
			c0.2,0,0.4,0.1,0.6,0.2c0.2,0.1,0.2,0.3,0.2,0.5c0,0.4-0.4,0.7-0.8,0.7H9.5c0,0.1-0.1,0.3-0.1,0.4C9.3,8.6,9.1,8.9,8.8,9.2l0,0
			l0,0C8.6,9.4,8.4,9.6,8.1,9.7h0.7v1.9L9.9,12V9.7c0.7,0,1.3-0.3,1.7-0.7c0.5-0.5,0.7-1,0.7-1.7C12.3,6.4,11.9,5.6,11.2,5.3z"/>
	</g>
	<g id="Shape_1_">
		<path class="st3" d="M8.2,5.3c0.1-0.2,0.3-0.6,0.3-0.9c0-0.6-0.2-1.1-0.7-1.5C7.3,2.6,6.8,2.3,6.3,2.3V0.4L5.2,0v2.3l-2.7,0
			c-0.1,0-0.2,0.1-0.2,0.2l0,0c0,0.1,0.1,0.2,0.2,0.2h3.8L6,3.1H3.8v1H3.1C3,4,3,4.1,3,4.2l0,0C3,4.3,3,4.4,3.1,4.4H5L4.7,4.8H3.8v1
			H1.3C1.2,5.8,1.1,5.9,1.1,6l0,0c0,0.1,0.1,0.2,0.2,0.2H5L4.7,6.6H3.8v1H2.5c-0.1,0-0.2,0.1-0.2,0.2l0,0c0,0.1,0.1,0.2,0.2,0.2h2.2
			L4.5,8.3H3.8v1H0.5c-0.1,0-0.2,0.1-0.2,0.2l0,0c0,0.1,0.1,0.2,0.2,0.2l4.7,0v1.9L6.3,12V9.7h0.4c0.8,0,1.4-0.2,1.9-0.7
			c0.5-0.5,0.7-1,0.7-1.7C9.3,6.4,8.9,5.6,8.2,5.3z M5.6,4H6c0.3,0,0.5,0.2,0.5,0.5C6.5,4.8,6.2,5,5.9,5c-0.1,0-0.3,0-0.4,0V4z
			 M6.7,7.9H5.6V6.4c0.4,0,0.7,0,1.2,0c0.2,0,0.4,0.1,0.6,0.2C7.4,6.8,7.5,7,7.5,7.2C7.5,7.6,7.1,7.9,6.7,7.9L6.7,7.9z"/>
	</g>
</g>
</svg>
