<svg xmlns="http://www.w3.org/2000/svg" width="61" height="56" viewBox="0 0 61 56">
    <g fill="none" fill-rule="evenodd">
        <g fill="#2B3036" fill-rule="nonzero">
            <g>
                <path d="M53.926 24.673c.594-1.046 1.207-2.83 1.207-4.286 0-2.61-1.005-4.914-3.241-6.82-1.206-1.023-2.594-1.802-4.09-2.296V1.804L42.503 0v10.6h-7.049c1.078.507 2.086 1.156 2.998 1.93 1.182.98 2.139 2.21 2.806 3.603.4.862.67 1.78.803 2.725h1.382c1.3 0 2.472.965 2.472 2.23 0 1.42-1.303 2.283-2.67 2.424-.644.05-1.2.09-1.7.128-.057.16-.116.318-.177.47.516.341 1 .728 1.448 1.156.771.74 1.437 1.584 1.977 2.51.41.703.75 1.445 1.014 2.217.402.007.81.02 1.238.04.988.047 1.932.432 2.678 1.092.735.674 1.098 1.447 1.098 2.411 0 1.967-1.73 3.37-3.722 3.37h-.935c-.15.656-.358 1.3-.618 1.92-.652 1.522-1.599 2.895-2.784 4.038-.999.962-2.15 1.746-3.404 2.32h3.152v9.011L47.81 56V45.172c3.33-.136 6.223-1.245 8.322-3.283 2.198-2.152 3.321-4.813 3.321-7.867-.008-3.93-2.184-7.756-5.527-9.349z" transform="translate(-766 -3847) translate(766.547 3847)"/>
                <path d="M38.801 24.673c.61-1.046 1.238-2.83 1.238-4.286 0-2.61-1.03-4.914-3.321-6.82-1.977-1.634-4.334-2.602-6.998-2.884v-8.88L24.292 0v10.6l-13.108-.01c-.514 0-.93.413-.931.923 0 .51.417.923.931.923h18.668l-1.349 1.846h-10.93v4.488h-3.278c-.513 0-.93.412-.93.922s.416.923.93.923h8.896l-1.348 1.846h-4.27v4.488H5.285c-.512.003-.925.416-.925.923-.001.509.412.922.925.925h17.907l-1.348 1.847h-4.27v4.488h-6.389c-.514 0-.93.413-.931.922 0 .51.417.923.931.923H22.07l-1.348 1.847h-3.147v4.487H1.384c-.514 0-.93.412-.931.921 0 .51.416.923.93.923l22.91.029v9.011L29.72 56V45.188h2.086c3.714 0 6.947-1.118 9.248-3.299 2.25-2.152 3.399-4.813 3.399-7.867 0-3.93-2.227-7.756-5.652-9.349zM26.079 18.86h1.99c1.332 0 2.534.966 2.534 2.231 0 1.419-1.334 2.281-2.734 2.424-.68.05-1.266.092-1.79.127V18.86zm5.727 18.045h-5.727v-6.888c1.965-.01 3.646-.072 5.675.023 1.01.045 1.975.428 2.738 1.087.754.673 1.126 1.446 1.126 2.41.005 1.966-1.772 3.368-3.812 3.368z" transform="translate(-766 -3847) translate(766.547 3847)"/>
            </g>
        </g>
    </g>
</svg>
