<svg xmlns="http://www.w3.org/2000/svg" width="24" height="24" viewBox="0 0 24 24">
    <g fill="none" fill-rule="evenodd">
        <g fill="#FFB800">
            <path d="M1088.003 83c6.616 0 11.997 5.383 11.997 12s-5.381 12-11.997 12c-2.44 0-4.704-.727-6.6-1.982l-4.613 1.474 1.495-4.459c-1.439-1.975-2.285-4.409-2.285-7.033 0-6.617 5.381-12 11.997-12zm-4.52 5.489c-.459 0-.938.134-1.227.43-.353.36-1.228 1.2-1.228 2.92 0 1.722 1.256 3.387 1.425 3.62.176.232 2.447 3.816 5.974 5.277 2.757 1.143 3.575 1.037 4.203.903.917-.198 2.066-.875 2.356-1.693.289-.819.289-1.517.204-1.666-.084-.148-.317-.232-.67-.409-.352-.176-2.066-1.023-2.39-1.136-.318-.12-.621-.077-.861.262-.339.472-.67.952-.938 1.241-.212.226-.557.254-.846.134-.388-.162-1.474-.543-2.815-1.735-1.036-.924-1.742-2.074-1.946-2.42-.205-.352-.021-.557.141-.748.176-.218.346-.373.522-.578.176-.205.275-.31.388-.55.12-.233.035-.473-.05-.65-.047-.098-.285-.672-.537-1.284l-.152-.367-.39-.945c-.232-.557-.409-.578-.761-.592-.12-.007-.254-.014-.402-.014z" transform="translate(-1076 -83)"/>
        </g>
    </g>
</svg>
