<svg xmlns="http://www.w3.org/2000/svg" width="83" height="83" viewBox="0 0 83 83">
    <g fill="none" fill-rule="evenodd">
        <g>
            <g transform="translate(-758 -2078) translate(758 2078)">
                <rect width="82" height="82" x=".5" y=".5" fill="#FFF" stroke="#FFEDDA" rx="10"/>
                <g fill="#FFB800">
                    <path d="M34.07 20.945c-1.89-2.055-5.157-1.77-6.679.561-1.525-2.335-4.796-2.614-6.684-.556-1.596 1.74-1.413 4.474.242 6.156l5.883 5.98c.307.311.809.311 1.116 0l5.884-5.98c1.659-1.684 1.839-4.422.239-6.161z" opacity=".5" transform="translate(24 26)"/>
                    <path d="M14.087 20.348H6.261c-.433 0-.783-.35-.783-.783 0-.432.35-.782.783-.782h7.826c.433 0 .783.35.783.782 0 .432-.35.783-.783.783z" transform="translate(24 26)"/>
                    <path fill-rule="nonzero" d="M32.87 0H3.13C1.404 0 0 1.404 0 3.13v20.348c0 1.727 1.404 3.13 3.13 3.13h12.522v-1.565H3.13c-.863 0-1.565-.702-1.565-1.565V13.304h32.87v3.913H36V3.13C36 1.404 34.596 0 32.87 0zm1.565 7.043H1.565V3.13c0-.863.702-1.565 1.565-1.565h29.74c.863 0 1.565.702 1.565 1.565v3.913z" transform="translate(24 26)"/>
                </g>
            </g>
        </g>
    </g>
</svg>
