<svg xmlns="http://www.w3.org/2000/svg" width="241" height="77" viewBox="0 0 241 77">
    <defs>
        <filter id="34s2zmewya">
            <feColorMatrix in="SourceGraphic" values="0 0 0 0 1.000000 0 0 0 0 0.721569 0 0 0 0 0.000000 0 0 0 1.000000 0"/>
        </filter>
    </defs>
    <g fill="none" fill-rule="evenodd">
        <g filter="url(#34s2zmewya)" transform="translate(-245 -56)">
            <g fill="#2B3036" fill-rule="nonzero">
                <path d="M71.975 33.927c.819-1.439 1.662-3.894 1.662-5.893 0-3.59-1.386-6.756-4.464-9.378-1.658-1.406-3.568-2.477-5.624-3.153V2.48L56.26 0v14.576h-9.696c1.482.699 2.867 1.59 4.12 2.653 1.627 1.348 2.944 3.038 3.861 4.955.55 1.186.921 2.448 1.104 3.745h1.899c1.789 0 3.402 1.33 3.402 3.07 0 1.95-1.792 3.135-3.672 3.338-.887.07-1.651.123-2.34.174-.078.221-.16.437-.243.648.709.468 1.375 1 1.991 1.589 1.06 1.016 1.975 2.18 2.716 3.454.563.966 1.03 1.987 1.396 3.047.55.01 1.114.028 1.7.056 1.361.06 2.662.587 3.69 1.493 1.011.927 1.51 1.99 1.51 3.31 0 2.705-2.379 4.632-5.12 4.632h-1.286c-.207.904-.491 1.788-.85 2.643-.898 2.091-2.2 3.978-3.83 5.55-1.375 1.328-2.961 2.41-4.691 3.202h4.336v12.384L63.549 77V62.114c4.58-.188 8.56-1.713 11.45-4.516 3.022-2.961 4.565-6.62 4.565-10.818.004-5.402-2.988-10.661-7.589-12.853z" transform="translate(245.436 56)"/>
                <path d="M51.986 33.929c.817-1.44 1.658-3.894 1.658-5.894 0-3.589-1.382-6.756-4.455-9.378-2.652-2.248-5.813-3.577-9.384-3.962V2.481L32.529 0v14.577l-17.575-.014c-.689 0-1.247.568-1.247 1.268 0 .337.13.66.365.898.234.238.551.372.882.372h25.03l-1.807 2.538H23.522v6.171h-4.395c-.332 0-.65.133-.884.371-.234.238-.366.56-.366.897 0 .337.132.66.366.898.235.238.552.371.884.37h11.927l-1.808 2.54h-5.724v6.171H7.043c-.331 0-.649.133-.883.371-.234.238-.366.561-.366.898 0 .337.13.66.365.9.234.238.552.372.884.372h24.011l-1.808 2.538h-5.724v6.17h-8.568c-.33 0-.648.134-.882.373-.234.238-.366.561-.365.898 0 .336.13.66.365.898.234.238.551.372.882.372H29.55l-1.808 2.538h-4.22v6.17H1.812c-.69 0-1.248.569-1.248 1.269s.558 1.268 1.246 1.27l30.72.04V74.52L39.807 77V62.138h2.798c4.981 0 9.313-1.537 12.399-4.53 3.017-2.962 4.56-6.62 4.56-10.819 0-5.41-2.987-10.669-7.58-12.86zm-17.06-7.995h2.67c1.785 0 3.396 1.33 3.396 3.07 0 1.949-1.789 3.135-3.667 3.337-.911.072-1.696.128-2.399.175v-6.582zm7.68 24.813h-7.68v-9.473c2.636-.014 4.89-.1 7.61.03 1.355.064 2.649.59 3.672 1.496 1.01.926 1.51 1.99 1.51 3.31 0 2.709-2.377 4.637-5.112 4.637zM97.379 18.885c.691.325 1.336.736 1.918 1.222 3.023 2.953 3.023 7.704 0 10.658C97.87 32.22 95.879 33.03 93.805 33h-9.24V9.001h6.942c1.861-.026 3.65.697 4.937 1.995 1.277 1.202 1.988 2.856 1.969 4.577 0 1.144-.574 2.523-1.034 3.312zm-5.88-5.194H89.54v4.39c.443-.018 1.065-.059 1.867-.117 1.184-.13 2.192-.985 2.192-2.204.002-1.127-.932-2.047-2.1-2.07zm5.186 11.745c-.022-1.557-1.276-2.837-2.886-2.947-1.48-.08-2.761-.015-4.259-.015v5.82h4.26c.776-.007 1.517-.313 2.059-.85.542-.536.839-1.26.826-2.008zM103.564 9h7.995c2.727 0 4.932 1.01 6.413 2.441 1.492 1.462 2.371 2.794 2.371 5.45v.625c0 1.618-.515 3.142-1.545 4.57-.859 1.178-1.546 1.683-2.934 2.22l5.7 8.694h-6.024l-7.041-10.615V33h-4.92l-.015-24zm11.703 8.04c.003-.866-.347-1.697-.972-2.308-.64-.61-1.853-.953-3.04-.953h-2.767v6.625h1.9v.016h1.641c1.795 0 3.238-1.552 3.238-3.38zM138.565 23.298V9h4.999v14.313c.047 3.445-1.848 6.649-4.962 8.385-3.113 1.736-6.962 1.736-10.075 0-3.114-1.736-5.01-4.94-4.962-8.385V9h5v14.298c0 2.578 2.283 4.752 5 4.752 2.69 0 5-2.19 5-4.752zM162.564 9L162.564 13.779 156.551 13.779 156.551 33 151.602 33 151.602 13.779 145.564 13.779 145.564 9zM180.564 9L180.564 13.791 170.562 13.791 170.562 18.611 178.062 18.611 178.062 23.404 170.562 23.404 170.562 28.224 180.564 28.224 180.564 33 165.564 33 165.564 9zM97.38 49.886c.692.325 1.336.735 1.917 1.221 3.023 2.954 3.023 7.706 0 10.66-1.426 1.455-3.42 2.265-5.495 2.232h-9.238V40.001h6.94c1.862-.026 3.65.697 4.937 1.995 1.277 1.199 1.99 2.85 1.974 4.57-.001 1.151-.575 2.531-1.035 3.32zm-5.877-5.197h-1.96v4.393c.444-.02 1.066-.059 1.868-.12 1.183-.127 2.19-.982 2.19-2.203.003-1.127-.931-2.048-2.098-2.07zm5.183 11.748c-.022-1.557-1.275-2.838-2.884-2.95-1.48-.077-2.76-.013-4.258-.013v5.815h4.258c.775-.008 1.515-.312 2.056-.848.541-.535.84-1.256.828-2.004zM103.564 40h7.997c2.728 0 4.934 1.01 6.415 2.441 1.493 1.462 2.372 2.795 2.372 5.45v.63c0 1.617-.515 3.14-1.546 4.572-.859 1.177-1.546 1.682-2.934 2.217l5.696 8.69h-6.02L108.5 53.385V64h-4.922l-.014-24zm11.706 8.04c.004-.865-.346-1.696-.972-2.308-.64-.609-1.854-.954-3.04-.954h-2.768v6.627h1.9v.015h1.642c1.795 0 3.238-1.552 3.238-3.38zM144.03 43.533c2.357 2.356 3.534 5.186 3.534 8.492 0 3.305-1.177 6.132-3.533 8.48-2.346 2.33-5.17 3.495-8.474 3.495-3.303 0-6.128-1.164-8.474-3.491-2.346-2.347-3.519-5.174-3.519-8.48 0-3.307 1.173-6.138 3.52-8.493 2.354-2.357 5.178-3.536 8.473-3.536 3.295 0 6.12 1.178 8.474 3.533zm-13.56 3.373c-2.773 2.814-2.759 7.338.031 10.135 2.79 2.796 7.313 2.817 10.129.046 1.84-1.81 2.57-4.471 1.91-6.969-.66-2.498-2.608-4.45-5.103-5.113-2.495-.665-5.155.061-6.968 1.9zM164.564 40L164.564 44.778 158.551 44.778 158.551 64 153.601 64 153.601 44.778 147.564 44.778 147.564 40zM170.473 40L170.473 49.603 178.658 49.603 178.658 40 183.564 40 183.564 64 178.658 64 178.658 54.381 170.468 54.381 170.468 64 165.564 64 165.564 40zM200.564 40L200.564 44.792 190.562 44.792 190.562 49.612 198.062 49.612 198.062 54.403 190.562 54.403 190.562 59.225 200.564 59.225 200.564 64 185.564 64 185.564 40zM204.564 40h7.998c2.728 0 4.933 1.01 6.414 2.441 1.491 1.462 2.37 2.795 2.37 5.45v.63c-.007 1.646-.549 3.247-1.545 4.572-.86 1.177-1.546 1.682-2.934 2.217l5.697 8.69h-6.012l-7.042-10.615V64h-4.927l-.019-24zm11.707 8.04c.003-.866-.347-1.697-.974-2.308-.64-.609-1.852-.954-3.04-.954h-2.766v6.627h1.9v.015h1.642c1.793 0 3.238-1.552 3.238-3.38zM230.495 59.175c1.394 0 2.933-1.089 2.933-2.398 0-2.151-3.077-2.455-4.814-3.021-3.063-.982-5.768-3.345-5.768-6.56.003-3.782 3.119-6.917 7.133-7.179 4.015-.26 7.561 2.441 8.119 6.187l-5.013.992c-.004-1.322-1.149-2.39-2.556-2.387-1.407.005-2.544 1.08-2.54 2.402 0 2.127 2.865 2.692 4.608 3.179 3.17.859 5.967 3.129 5.967 6.415 0 3.982-3.803 7.195-8.03 7.195-3.886 0-7.396-2.677-7.97-6.192l5.013-1.003c0 1.324 1.525 2.391 2.94 2.391l-.022-.021zM88.564 69.683L86.91 69.683 86.91 75 86.222 75 86.222 69.683 84.564 69.683 84.564 69 88.564 69zM96.564 69L96.564 75 95.898 75 95.898 72.269 93.233 72.269 93.233 75 92.564 75 92.564 69 93.233 69 93.233 71.676 95.898 71.676 95.898 69zM105.564 74.337L105.564 75 101.564 75 101.564 69 105.56 69 105.56 69.661 102.442 69.661 102.442 71.654 104.966 71.654 104.966 72.29 102.442 72.29 102.442 74.337zM118.213 73.72c.037 0 .071.02.095.053l.256.341c-.196.278-.44.5-.713.65-.321.166-.667.246-1.015.235-.32.005-.638-.07-.935-.22-.273-.139-.518-.349-.718-.616-.201-.272-.355-.592-.454-.94-.112-.39-.168-.803-.164-1.218-.004-.415.053-.827.17-1.216.106-.354.27-.677.48-.951.209-.268.46-.478.74-.618.303-.15.627-.225.953-.22.307-.006.611.063.896.202.255.13.488.317.689.55l-.215.366c-.012.028-.03.05-.051.068-.026.02-.055.029-.085.027-.056-.007-.108-.035-.15-.08-.072-.067-.148-.129-.227-.184-.11-.076-.228-.138-.35-.183-.396-.13-.814-.102-1.195.077-.202.104-.382.26-.53.458-.155.213-.272.462-.346.733-.085.313-.127.641-.124.971-.004.334.04.665.129.98.077.27.196.52.35.733.147.191.326.34.524.44.206.105.428.158.652.156.13.001.258-.009.386-.031.108-.018.215-.05.318-.096.095-.042.185-.098.27-.166.089-.071.172-.152.25-.24.03-.037.071-.059.114-.06zM125.564 74.993h-.649c-.12.007-.233-.06-.295-.172l-1.403-2.133c-.034-.06-.081-.109-.137-.144-.072-.034-.15-.05-.229-.045h-.56V75h-.727v-6h1.528c.299-.005.596.033.886.115.223.064.433.177.617.332.158.14.282.32.36.525.146.411.155.865.028 1.283-.06.181-.149.35-.263.495-.12.15-.261.276-.419.374-.176.107-.365.186-.561.235.098.062.181.15.243.254l1.581 2.38zm-2.497-3.09c.19.003.378-.026.56-.086.15-.05.288-.132.408-.243.106-.102.19-.23.246-.374.057-.153.085-.317.083-.482.019-.31-.1-.61-.317-.805-.281-.204-.615-.3-.95-.273h-.806v2.263h.776zM130.033 72.61V75h-.935v-2.39L126.564 69h.822c.07-.003.14.015.196.053.052.038.094.084.125.136l1.583 2.332c.058.097.112.187.16.273.046.084.088.17.124.259.037-.086.076-.173.12-.259.046-.086.096-.176.152-.273l1.576-2.332c.03-.05.071-.094.12-.13.056-.04.127-.062.199-.059h.823l-2.53 3.61zM138.332 69c.334-.006.667.038.988.132.256.074.493.202.697.374.181.16.322.36.41.586.094.244.14.504.137.765.004.263-.046.524-.147.767-.096.23-.242.434-.428.599-.204.176-.442.31-.699.391-.31.099-.633.146-.958.14h-.962V75h-.806v-6h1.768zm0 3.11c.208.005.415-.026.613-.091.164-.055.316-.143.446-.258.121-.109.215-.244.275-.395.062-.162.093-.334.091-.507.019-.336-.11-.663-.353-.895-.235-.215-.594-.323-1.072-.323h-.962v2.47h.962zM147.564 69.683L145.91 69.683 145.91 75 145.222 75 145.222 69.683 143.564 69.683 143.564 69 147.564 69zM156.564 72.004c.005.412-.068.823-.216 1.21-.134.354-.342.676-.611.949-.268.268-.59.478-.949.617-.787.293-1.66.293-2.447 0-.358-.139-.682-.35-.95-.617-.267-.273-.475-.596-.61-.949-.289-.783-.289-1.638 0-2.421.135-.353.343-.677.61-.95.269-.269.592-.48.95-.621.787-.296 1.66-.296 2.447 0 .358.14.681.352.949.62.268.274.476.597.61.951.149.387.222.798.217 1.21zm-.844 0c.004-.33-.047-.658-.152-.971-.09-.27-.238-.52-.434-.733-.188-.2-.42-.356-.68-.458-.572-.213-1.206-.213-1.778 0-.259.103-.492.259-.68.458-.198.212-.346.462-.435.733-.205.631-.205 1.308 0 1.94.09.27.237.52.434.732.19.199.422.354.681.456.573.21 1.206.21 1.778 0 .26-.1.492-.257.68-.456.196-.212.344-.462.434-.733.105-.312.157-.64.152-.968zM169.564 74.317L169.564 75 165.564 75 165.564 69 166.514 69 166.514 74.317zM176.564 72.004c.005.413-.07.823-.218 1.21-.134.354-.342.676-.61.949-.267.268-.59.479-.949.617-.787.293-1.659.293-2.446 0-.357-.139-.68-.349-.948-.617-.27-.272-.478-.595-.612-.949-.289-.783-.289-1.638 0-2.421.135-.354.343-.677.612-.95.268-.27.59-.48.948-.621.787-.296 1.66-.296 2.446 0 .358.14.681.351.949.62.268.274.476.597.61.951.149.387.222.798.218 1.21zm-.845 0c.004-.33-.047-.658-.152-.971-.09-.27-.238-.52-.432-.733-.19-.199-.42-.355-.68-.458-.572-.212-1.206-.212-1.778 0-.26.103-.492.259-.68.458-.198.212-.346.462-.435.733-.205.631-.205 1.308 0 1.94.09.27.237.52.434.732.19.199.422.354.68.456.574.21 1.207.21 1.78 0 .258-.102.49-.258.679-.456.194-.213.341-.462.432-.733.105-.312.156-.64.152-.968zM184.214 73.72c.036 0 .07.02.094.053l.256.341c-.195.279-.438.5-.712.65-.32.166-.665.246-1.012.235-.32.005-.637-.07-.933-.22-.272-.14-.516-.35-.716-.616-.205-.271-.362-.591-.464-.94-.111-.39-.166-.803-.162-1.218-.004-.415.053-.827.17-1.216.105-.354.267-.678.478-.951.21-.269.464-.479.745-.618.302-.15.625-.225.95-.22.307-.006.61.063.895.202.254.13.487.317.687.55l-.213.366c-.013.027-.031.05-.052.068-.026.02-.055.029-.085.027-.056-.006-.108-.035-.15-.08-.072-.067-.148-.128-.227-.184-.11-.076-.228-.138-.349-.183-.168-.058-.342-.085-.517-.08-.232-.004-.462.05-.677.157-.201.103-.382.26-.529.458-.154.214-.271.463-.345.733-.085.313-.127.641-.123.971-.005.334.039.666.129.98.075.271.194.52.35.733.145.197.323.351.523.453.206.105.428.158.651.156.13.001.258-.01.386-.032.108-.018.214-.05.316-.095.095-.042.185-.098.27-.167.088-.07.171-.15.249-.24.03-.042.072-.068.117-.073zM190.243 71.631h.254c.072.003.144-.01.212-.04.057-.029.108-.076.146-.136l1.665-2.262c.037-.064.088-.117.147-.152.059-.03.123-.043.187-.04h.572l-1.904 2.583c-.04.06-.085.116-.134.167-.042.043-.089.078-.138.107.062.024.12.061.171.11.059.054.111.117.156.188L193.564 75h-.584c-.038 0-.076-.003-.114-.011-.029-.005-.057-.016-.083-.034-.022-.014-.043-.032-.06-.054-.019-.023-.036-.047-.05-.073l-1.724-2.384c-.041-.064-.095-.115-.156-.148-.078-.035-.16-.05-.243-.045h-.312V75h-.674v-6h.674l.005 2.631zM200.225 69.973c-.022.036-.05.067-.085.093-.032.02-.07.03-.11.03-.063-.005-.124-.03-.173-.07-.065-.046-.148-.097-.246-.153-.114-.062-.234-.113-.358-.154-.163-.05-.334-.073-.506-.07-.168-.003-.334.022-.493.074-.131.041-.253.107-.358.193-.093.08-.168.178-.217.287-.05.116-.075.24-.073.366-.006.146.038.289.127.408.09.113.205.207.336.276.15.082.31.148.474.198l.543.182c.192.059.365.127.542.202.172.072.331.168.474.285.141.116.255.26.335.42.09.193.134.403.127.615.001.246-.045.491-.137.722-.09.22-.226.42-.402.587-.187.171-.408.305-.65.393-.281.099-.579.147-.878.143-.376.004-.748-.066-1.093-.207-.317-.13-.603-.32-.84-.56l.241-.374c.023-.03.052-.057.085-.077.032-.02.07-.032.11-.031.045.003.09.018.126.044.047.029.1.064.162.108l.206.144c.084.055.173.103.266.143.241.103.504.155.77.151.18.003.358-.024.529-.078.142-.048.273-.122.385-.22.108-.093.192-.208.246-.336.06-.14.089-.289.087-.439.007-.154-.038-.306-.127-.435-.088-.116-.202-.213-.333-.284-.15-.081-.309-.147-.474-.195l-.543-.163c-.192-.057-.365-.12-.542-.194-.173-.07-.333-.168-.474-.287-.143-.123-.257-.273-.335-.44-.17-.402-.17-.851 0-1.253.085-.195.212-.37.372-.516.172-.158.375-.283.598-.365.26-.094.538-.14.816-.136.321-.003.64.05.942.156.277.102.53.254.746.45l-.198.367zM209.564 69.002V75h-.683v-4.408-.187c0-.065 0-.134.015-.204l-1.977 3.742c-.048.117-.16.19-.28.187h-.114c-.122.003-.233-.07-.282-.187l-2.019-3.766c.016.136.024.273.025.41v4.407h-.685v-5.992h.576c.054-.002.109.005.161.02.048.026.086.068.108.119l1.992 3.69c.032.068.063.137.093.21.03.073.06.146.087.221.027-.075.055-.15.084-.223.029-.073.063-.144.097-.211l1.958-3.69c.02-.051.059-.093.107-.117.053-.016.108-.022.162-.02l.575.001zM215.564 75L214.564 75 214.564 69 215.564 69zM222.564 69.683L220.91 69.683 220.91 75 220.223 75 220.223 69.683 218.564 69.683 218.564 69 222.564 69zM231.564 69L231.564 75 230.896 75 230.896 72.269 228.233 72.269 228.233 75 227.564 75 227.564 69 228.233 69 228.233 71.676 230.896 71.676 230.896 69zM239.225 69.973c-.022.036-.05.067-.085.093-.032.02-.07.03-.11.03-.063-.005-.123-.03-.17-.07-.069-.045-.151-.096-.249-.153-.114-.062-.234-.113-.358-.154-.163-.05-.334-.073-.506-.07-.168-.003-.334.022-.493.074-.131.041-.253.107-.358.193-.093.08-.168.178-.217.287-.05.116-.075.24-.073.366-.006.146.038.289.127.408.091.113.206.207.336.276.15.082.31.148.474.198l.543.182c.192.059.365.127.542.202.172.072.332.168.474.285.141.116.255.26.335.42.09.193.134.403.127.615.001.246-.045.491-.137.722-.09.22-.226.42-.402.587-.187.171-.408.305-.65.393-.281.099-.579.147-.878.143-.376.004-.748-.066-1.093-.207-.317-.13-.603-.32-.84-.56l.241-.374c.023-.03.052-.057.085-.077.032-.02.07-.032.11-.031.045.003.09.018.126.044.049.029.102.064.162.108l.206.144c.303.196.663.299 1.03.294.18.003.358-.024.529-.078.143-.047.274-.122.385-.22.108-.093.192-.208.246-.336.06-.14.089-.289.087-.439.007-.154-.038-.306-.127-.435-.088-.116-.202-.213-.333-.284-.15-.081-.309-.147-.474-.195l-.542-.163c-.193-.057-.366-.12-.543-.194-.173-.07-.333-.168-.474-.287-.143-.123-.257-.273-.334-.44-.17-.402-.17-.851 0-1.253.085-.194.212-.37.371-.516.172-.158.375-.283.599-.365.26-.094.537-.14.816-.136.32-.003.64.05.94.156.279.101.532.254.747.45l-.192.367z" transform="translate(245.436 56)"/>
            </g>
        </g>
    </g>
</svg>
