<svg xmlns="http://www.w3.org/2000/svg" width="83" height="83" viewBox="0 0 83 83">
    <defs>
        <filter id="5ebqfd2hxa">
            <feColorMatrix in="SourceGraphic" values="0 0 0 0 0.992157 0 0 0 0 0.713725 0 0 0 0 0.000000 0 0 0 1.000000 0"/>
        </filter>
        <filter id="k1fthjudlb">
            <feColorMatrix in="SourceGraphic" values="0 0 0 0 1.000000 0 0 0 0 0.858824 0 0 0 0 0.498039 0 0 0 1.000000 0"/>
        </filter>
    </defs>
    <g fill="none" fill-rule="evenodd">
        <g>
            <g>
                <g transform="translate(-758 -1638) translate(758 1638)">
                    <rect width="82" height="82" x=".5" y=".5" fill="#FFF" stroke="#FFEDDA" rx="10"/>
                    <g filter="url(#5ebqfd2hxa)">
                        <g>
                            <path fill="#000" fill-rule="nonzero" d="M39.56 20.167h-5.203l-1.997-2.659c.86-1.422 1.386-3.02 1.54-4.675h2.948c.447 1.263 1.737 2.02 3.056 1.794 1.319-.226 2.283-1.371 2.283-2.71 0-1.34-.964-2.484-2.283-2.71-1.32-.227-2.61.53-3.056 1.793H33.9c-.134-1.65-.645-3.245-1.493-4.666l1.951-2.667h5.203c.446 1.263 1.736 2.02 3.055 1.794 1.32-.227 2.283-1.371 2.283-2.71 0-1.34-.964-2.485-2.283-2.711-1.319-.227-2.61.53-3.055 1.794H33.9c-.596 0-.605.192-2.657 2.933-2.088-2.431-5.132-3.83-8.335-3.83-3.204 0-6.248 1.399-8.336 3.83-2.024-2.704-2.042-2.933-2.656-2.933h-5.66C5.808.57 4.518-.186 3.2.04 1.88.266.917 1.41.917 2.75c0 1.34.964 2.484 2.283 2.71 1.319.227 2.61-.53 3.055-1.793h5.203l1.997 2.667c-.848 1.42-1.359 3.017-1.493 4.666H9.003c-.446-1.263-1.736-2.02-3.055-1.794-1.32.227-2.283 1.371-2.283 2.71 0 1.34.964 2.485 2.283 2.711 1.319.227 2.61-.53 3.055-1.794h2.913c.137 1.652.647 3.25 1.493 4.675l-1.951 2.659H6.255c-.446-1.263-1.736-2.02-3.055-1.794-1.32.226-2.283 1.37-2.283 2.71 0 1.34.964 2.484 2.283 2.71 1.319.227 2.61-.53 3.055-1.793h5.66c.605 0 .605-.202 2.648-2.924 1.464 1.71 3.418 2.929 5.597 3.492v5.848h-1.832c-.506 0-.916.41-.916.917v3.932c0 .507.41.917.916.917h1.832v1.568h-1.832c-.506 0-.916.41-.916.916 0 2.988-.083 3.043.265 3.401C21.68 44.073 21.48 44 21.992 44c.512 0 .274.11 4.314-3.933.384-.385.265.917.265-17.783 1.814-.64 3.426-1.75 4.672-3.217l1.923 2.566c.367.495.183.367 6.412.367.446 1.263 1.736 2.02 3.055 1.794 1.32-.227 2.284-1.371 2.284-2.71 0-1.34-.965-2.485-2.284-2.711-1.319-.227-2.609.53-3.055 1.794h-.018zm2.583-18.333c.506 0 .916.41.916.916s-.41.917-.916.917-.916-.41-.916-.917c0-.506.41-.916.916-.916zM3.673 3.667c-.507 0-.917-.41-.917-.917 0-.506.41-.916.916-.916s.916.41.916.916-.41.917-.916.917zm0 18.333c-.507 0-.917-.41-.917-.917 0-.506.41-.916.916-.916s.916.41.916.916-.41.917-.916.917zm35.722-11c.506 0 .916.41.916.917 0 .506-.41.916-.916.916s-.916-.41-.916-.916c0-.507.41-.917.916-.917zM6.42 12.833c-.506 0-.916-.41-.916-.916 0-.507.41-.917.916-.917s.916.41.916.917c0 .506-.41.916-.916.916zm18.988 7.902c-.408.114-.684.493-.669.917v17.416l-2.747 2.75-2.748-2.75v-1.485h1.832c.505 0 .916-.41.916-.917v-3.4c0-.507-.41-.917-.916-.917h-1.832v-2.1h1.832c.505 0 .916-.41.916-.916v-7.498c.007-.448-.31-.836-.752-.917-4.576-.84-7.795-4.98-7.486-9.626.31-4.645 4.05-8.32 8.697-8.546 4.647-.224 8.725 3.073 9.48 7.667.756 4.594-2.05 9.025-6.523 10.304v.018zM42.143 22c-.506 0-.916-.41-.916-.917 0-.506.41-.916.916-.916s.916.41.916.916-.41.917-.916.917z" transform="translate(18.083 21)"/>
                        </g>
                    </g>
                </g>
                <g filter="url(#k1fthjudlb)" transform="translate(-758 -1638) translate(758 1638)">
                    <g fill="#2B3036" fill-rule="nonzero">
                        <path d="M11.159 5.287c.123-.224.251-.606.251-.918 0-.56-.21-1.053-.675-1.462-.251-.219-.54-.386-.852-.492V.387L8.78 0v2.271H7.31c.225.109.435.248.625.414.246.21.445.473.584.772.084.185.14.382.168.584h.287c.271 0 .516.207.516.478 0 .304-.272.489-.557.52-.134.01-.25.018-.354.027-.012.034-.024.068-.037.1.108.074.209.156.302.248.16.159.3.34.412.538.085.15.156.31.211.475.084.002.169.004.258.009.206.01.402.092.558.234.153.144.229.31.229.516 0 .422-.36.722-.776.722h-.195c-.031.141-.074.279-.128.412-.136.326-.333.62-.58.865-.208.206-.448.374-.71.497h.657v1.931L9.885 12V9.68c.693-.03 1.296-.267 1.733-.704.458-.46.692-1.031.692-1.686-.001-.842-.455-1.661-1.151-2.003z" transform="translate(34 27)"/>
                        <path d="M8.154 5.287c.125-.224.253-.606.253-.918 0-.56-.21-1.053-.679-1.462-.404-.35-.887-.557-1.431-.618V.387L5.187 0v2.271L2.504 2.27c-.105 0-.19.089-.19.198 0 .11.085.198.19.198h3.818l-.275.395H3.812v.962h-.67c-.106 0-.19.089-.19.198 0 .109.084.197.19.198h1.82l-.277.395h-.873v.962H1.298c-.104 0-.189.089-.189.198 0 .109.084.197.19.198H4.96l-.276.396h-.873v.961H2.505c-.105 0-.19.089-.19.198 0 .11.085.198.19.198h2.227l-.276.395h-.644v.962H.5c-.105 0-.19.088-.19.197 0 .11.085.198.19.198l4.686.006v1.931l1.11.387V9.683h.427c.76 0 1.421-.24 1.892-.707.46-.46.695-1.031.695-1.686 0-.842-.455-1.661-1.156-2.003zM5.552 4.041h.407c.272 0 .518.207.518.479 0 .304-.273.488-.56.519l-.365.027V4.041zm1.171 3.867H5.552V6.432c.402-.002.746-.015 1.16.005.207.01.405.092.56.233.155.144.231.31.231.517.001.42-.362.721-.78.721z" transform="translate(34 27)"/>
                    </g>
                </g>
            </g>
        </g>
    </g>
</svg>
