<?xml version="1.0" encoding="UTF-8"?>
<svg width="276px" height="77px" viewBox="0 0 276 77" version="1.1" xmlns="http://www.w3.org/2000/svg" xmlns:xlink="http://www.w3.org/1999/xlink">
    <title>BruteBrothers Final-06 Copy</title>
    <g id="Designs" stroke="none" stroke-width="1" fill="none" fill-rule="evenodd">
        <g id="BruteBrothers-Final-06-Copy" transform="translate(0.435535, 0.000000)" fill="#FFB800" fill-rule="nonzero">
            <path d="M71.974961,33.9270362 C72.7938237,32.4880769 73.6367202,30.0334842 73.6367202,28.0335747 C73.6367202,24.4448869 72.2513486,21.2777828 69.1733174,18.6559502 C67.5145274,17.2497726 65.6054335,16.1793933 63.5494298,15.5027828 L63.5494298,2.48072398 L56.2603497,0 L56.2603497,14.5759955 L46.5644654,14.5759955 C48.04562,15.2749108 49.4306496,16.1668257 50.6845295,17.2291855 L50.6845295,17.2291855 L50.6845295,17.2291855 C52.310762,18.5765573 53.6282518,20.267244 54.545373,22.1836652 C55.0943341,23.369692 55.4663514,24.6320031 55.6492068,25.9291403 L57.5478697,25.9291403 C59.3366642,25.9291403 60.950356,27.2583484 60.950356,28.9986878 C60.950356,30.9480769 59.1581281,32.1344344 57.2783489,32.3365158 C56.3908184,32.4061991 55.6268898,32.4602036 54.9384958,32.510724 C54.8595279,32.7319683 54.7788433,32.9479864 54.6947253,33.1587783 C55.4039026,33.6270078 56.0703505,34.1587227 56.6860896,34.7475566 C57.746474,35.7641763 58.6606968,36.9270807 59.4018986,38.2021041 C59.9651037,39.16849 60.4326093,40.1891046 60.7975703,41.2490045 C61.3486289,41.259457 61.9117043,41.2768778 62.4988135,41.3047511 C63.8593503,41.3655566 65.1595823,41.8917446 66.1879876,42.7977149 C67.19912,43.7245023 67.6986777,44.7871719 67.6986777,46.1076697 C67.6986777,48.8131222 65.3193407,50.7398643 62.5777814,50.7398643 L61.291978,50.7398643 C61.0848503,51.6441367 60.800522,52.528389 60.4422148,53.3826018 C59.5441753,55.473989 58.2418353,57.3613122 56.6122718,58.9328733 L56.6122718,58.9328733 L56.6122718,58.9328733 C55.2371303,60.2605895 53.6509223,61.343124 51.9205488,62.134819 L56.2569163,62.134819 L56.2569163,74.519276 L63.5494298,77 L63.5494298,62.113914 C68.1295678,61.9257692 72.1088631,60.401448 74.998058,57.5984389 C78.0211551,54.6369005 79.5644654,50.9785294 79.5644654,46.7801131 C79.5678958,41.3779186 76.5756993,36.1185747 71.974961,33.9270362 Z" id="Path"></path>
            <path d="M51.9857764,33.9285714 C52.8031028,32.489547 53.6444178,30.0348432 53.6444178,28.0348432 C53.6444178,24.445993 52.2616454,21.2787456 49.1893892,18.6567944 C46.5369337,16.4094077 43.3755768,15.0801394 39.8047001,14.695122 L39.8047001,2.48083624 L32.5292957,0 L32.5292957,14.5766551 L14.9542078,14.5627178 C14.2652834,14.5627178 13.7067998,15.1305517 13.7067998,15.8310105 L13.7067998,15.8310105 C13.7063449,16.1676843 13.8375671,16.4907273 14.0715508,16.7289552 C14.3055345,16.9671832 14.6230775,17.1010456 14.9542078,17.1010453 L39.9846147,17.1010453 L38.1769012,19.6393728 L23.5215705,19.6393728 L23.5215705,25.8101045 L19.1265134,25.8101045 C18.7953835,25.8096421 18.47766,25.9430612 18.2433549,26.1809623 C18.0090498,26.4188635 17.8773916,26.741723 17.877392,27.0783972 L17.877392,27.0783972 C17.8773916,27.4150714 18.0090498,27.7379309 18.2433549,27.9758321 C18.47766,28.2137332 18.7953835,28.3471524 19.1265134,28.3466899 L31.0539958,28.3466899 L29.2462823,30.8867596 L23.5215705,30.8867596 L23.5215705,37.0574913 L7.04310509,37.0574913 C6.71197513,37.0570288 6.39425165,37.1904479 6.15994655,37.4283491 C5.92564144,37.6662503 5.79398329,37.9891098 5.7939836,38.325784 L5.7939836,38.325784 C5.79307196,38.6630615 5.92432777,38.9868174 6.15873189,39.225473 C6.393136,39.4641285 6.71138048,39.5980255 7.04310509,39.597561 L31.0539958,39.597561 L29.2462823,42.1358885 L23.5215705,42.1358885 L23.5215705,48.3066202 L14.9542078,48.3066202 C14.6230775,48.3066199 14.3055345,48.4404823 14.0715508,48.6787103 C13.8375671,48.9169382 13.7063449,49.2399812 13.7067998,49.5766551 L13.7067998,49.5766551 C13.7063449,49.9133289 13.8375671,50.2363719 14.0715508,50.4745998 C14.3055345,50.7128278 14.6230775,50.8466902 14.9542078,50.8466899 L29.5495669,50.8466899 L27.7418534,53.3850174 L23.5215705,53.3850174 L23.5215705,59.5557491 L1.81187342,59.5557491 C1.122949,59.5557491 0.564465409,60.1235831 0.564465409,60.8240418 L0.564465409,60.8240418 C0.564465409,61.5241042 1.12162788,62.092156 1.81015995,62.0940767 L32.5292957,62.1341463 L32.5292957,74.5191638 L39.808127,77 L39.808127,62.1376307 L42.6062277,62.1376307 C47.5872923,62.1376307 51.9189509,60.6010453 55.004915,57.6080139 C58.0223401,54.6463415 59.5644654,50.9878049 59.5644654,46.7891986 C59.5644654,41.3797909 56.5778828,36.1202091 51.9857764,33.9285714 Z M34.9264437,25.9337979 L37.596034,25.9337979 C39.3814723,25.9337979 40.9921365,27.2630662 40.9921365,29.0034843 C40.9921365,30.9529617 39.2032712,32.1393728 37.3253053,32.3414634 C36.4137379,32.412892 35.6289675,32.4686411 34.9264437,32.5156794 L34.9264437,25.9337979 Z M42.6062277,50.7473868 L34.9264437,50.7473868 L34.9264437,41.2735192 C37.5617645,41.2595819 39.8166944,41.174216 42.5359753,41.304878 C43.8907115,41.3679595 45.1847155,41.8947182 46.207947,42.7996516 C47.2188958,43.7264808 47.7175163,44.7891986 47.7175163,46.1097561 C47.7175163,48.8188153 45.3409298,50.7473868 42.6062277,50.7473868 Z" id="Shape"></path>
            <path d="M100.393862,21.3567147 C101.248035,21.7630668 102.0444,22.2762485 102.762887,22.8833264 C106.498325,26.5755768 106.498325,32.514233 102.762887,36.2064834 C101.002003,38.0240398 98.5409944,39.0370542 95.9788602,38.9989632 L84.5644654,38.9989632 L84.5644654,9.00083235 L93.1403371,9.00083235 C95.4399721,8.96862877 97.6496359,9.87213804 99.2395005,11.4947187 C100.816723,12.9973911 101.695322,15.0648658 101.670982,17.2163586 C101.670982,18.6462429 100.962428,20.3705151 100.393862,21.3567147 Z M92.9785526,15 L90.5644654,15 L90.5644654,20 C91.1099976,19.9789272 91.8767495,19.9329502 92.8647211,19.8659004 C94.3230531,19.7183908 95.5644654,18.7452107 95.5644654,17.3563218 C95.5670783,16.0733327 94.4166818,15.0250726 92.9785526,15 L92.9785526,15 Z M99.5639468,29.5770691 C99.5359358,27.7129639 97.9565127,26.1790753 95.9294564,26.0473605 C94.0649957,25.9526708 92.4508867,26.0292284 90.5644654,26.0292284 L90.5644654,33 L95.9294564,33 C96.9073438,32.9915363 97.8410988,32.6253392 98.5234701,31.982688 C99.2058414,31.3400367 99.5803769,30.4740973 99.5639468,29.5770691 L99.5639468,29.5770691 Z" id="Shape"></path>
            <path d="M107.564465,9 L117.779617,9 C121.264399,9 124.082069,10.2617412 125.973682,12.0513108 C127.880657,13.8787327 129.004214,15.544231 129.004214,18.8626104 L129.004214,19.6448899 C129.004214,21.6678817 128.345879,23.5724099 127.029211,25.3584747 C125.931988,26.8305061 125.054209,27.4613767 123.281096,28.1322024 L130.564465,39 L122.866345,39 L113.869112,25.7306883 L113.869112,39 L107.582021,39 L107.564465,9 Z M122.564465,18.9280466 C122.568676,17.8851975 122.104045,16.8840586 121.27384,16.1472004 C120.425604,15.4134786 118.813499,15 117.237877,15 L113.564465,15 L113.564465,22.9817583 L116.086373,22.9817583 L116.086373,23 L118.266249,23 C120.649064,23 122.564465,21.1312389 122.564465,18.9280466 L122.564465,18.9280466 Z" id="Shape"></path>
            <path d="M151.315546,26.8720386 L151.315546,9 L157.563378,9 L157.563378,26.8906812 C157.622684,31.1978365 155.25346,35.2023011 151.361907,37.3724148 C147.470354,39.5425284 142.658577,39.5425284 138.767024,37.3724148 C134.87547,35.2023011 132.506247,31.1978365 132.565553,26.8906812 L132.565553,9 L138.815551,9 L138.815551,26.8720386 C138.815551,30.0951369 141.668669,32.8128136 145.065549,32.8128136 C148.427766,32.8128136 151.315546,30.0744229 151.315546,26.8720386 Z" id="Path"></path>
            <polygon id="Path" points="180.564465 9 180.564465 14.9743446 173.135721 14.9743446 173.135721 39 167.022925 39 167.022925 14.9743446 159.564465 14.9743446 159.564465 9"></polygon>
            <polygon id="Path" points="203.564465 9 203.564465 14.9882665 190.894117 14.9882665 190.894117 21.0142478 200.394117 21.0142478 200.394117 27.0046096 190.894117 27.0046096 190.894117 33.0305909 203.564465 33.0305909 203.564465 39 184.564465 39 184.564465 9"></polygon>
            <path d="M100.395452,59.3575219 C101.249802,59.7631474 102.046019,60.276425 102.763749,60.8842333 C106.498038,64.5767249 106.498038,70.5157691 102.763749,74.2082606 C101.001657,76.0270105 98.5386557,77.0394953 95.9753495,76.99882 L84.5644654,76.99882 L84.5644654,47.0008324 L93.1376994,47.0008324 C95.4366271,46.9686267 97.6456113,47.872195 99.2349869,49.4948817 C100.812385,50.9935563 101.69371,53.0570959 101.674332,55.2063808 C101.672179,56.646873 100.963843,58.3712578 100.395452,59.3575219 Z M92.9785526,53 L90.5644654,53 L90.5644654,58 C91.1099976,57.9770203 91.8767495,57.9329759 92.8647211,57.8640368 C94.3230531,57.7184987 95.5644654,56.7456913 95.5644654,55.3554194 C95.5670783,54.0729216 94.4166818,53.025063 92.9785526,53 Z M99.564084,67.5814272 C99.5361608,65.7149112 97.956973,64.1787363 95.9295382,64.0458766 C94.0650491,63.9531012 92.4509155,64.0297417 90.5644654,64.0297417 L90.5644654,71 L95.9295382,71 C96.9058941,70.991507 97.8383093,70.6260222 98.5204357,69.9844293 C99.2025621,69.3428364 99.5781515,68.4780412 99.564084,67.5814272 L99.564084,67.5814272 Z" id="Shape"></path>
            <path d="M107.564465,47 L117.782541,47 C121.268321,47 124.086798,48.2618297 125.978953,50.0515247 C127.886473,51.8790747 129.010352,53.5446898 129.010352,56.8633018 L129.010352,57.6519453 C129.010352,59.6722748 128.351829,61.5769366 127.034784,63.3659306 C125.937246,64.8380652 125.059216,65.46898 123.285595,66.1377497 L130.564465,77 L122.870726,77 L113.870917,63.7318612 L113.870917,77 L107.582026,77 L107.564465,47 Z M122.564465,56.929078 C122.569177,55.8864045 122.104469,54.8853522 121.273834,54.1489362 C120.425598,53.4154002 118.813494,53 117.237874,53 L113.564465,53 L113.564465,60.9817629 L116.086371,60.9817629 L116.086371,61 L118.266245,61 C120.649058,61 122.564465,59.1296859 122.564465,56.929078 L122.564465,56.929078 Z" id="Shape"></path>
            <path d="M158.147402,51.4156651 C161.092111,54.3608233 162.564465,57.8992955 162.564465,62.0310816 C162.564465,66.1628678 161.092111,69.696505 158.147402,72.6319934 C155.215118,75.5439978 151.684366,77 147.555147,77 C143.425927,77 139.895176,75.5453792 136.962892,72.6361376 C134.030607,69.7020307 132.564465,66.1683934 132.564465,62.0352259 C132.564465,57.9020583 134.030607,54.3635861 136.962892,51.4198094 C139.90622,48.4732698 143.436972,47 147.555147,47 C151.673322,47 155.204073,48.4718884 158.147402,51.4156651 Z M141.155858,55.6811506 C137.685151,59.2010409 137.702988,64.8613768 141.195809,68.359324 C144.688631,71.8572712 150.348934,71.883408 153.87391,68.417866 C156.178634,66.1520017 157.091408,62.8243054 156.26528,59.6996605 C155.439152,56.5750157 153.000991,54.1332766 149.877561,53.3025675 C146.754131,52.4718584 143.4251,53.3797519 141.155858,55.6811506 L141.155858,55.6811506 Z" id="Shape"></path>
            <polygon id="Path" points="183.564465 47 183.564465 52.9726604 176.135721 52.9726604 176.135721 77 170.020803 77 170.020803 52.9726604 162.564465 52.9726604 162.564465 47"></polygon>
            <polygon id="Path" points="190.563893 47 190.563893 59.0042061 200.567136 59.0042061 200.567136 47 206.564465 47 206.564465 77 200.567136 77 200.567136 64.9768665 190.557598 64.9768665 190.557598 77 184.564465 77 184.564465 47"></polygon>
            <polygon id="Path" points="227.564465 47 227.564465 52.9899434 215.560977 52.9899434 215.560977 59.0155039 224.560977 59.0155039 224.560977 65.0033522 215.560977 65.0033522 215.560977 71.0310078 227.564465 71.0310078 227.564465 77 209.564465 77 209.564465 47"></polygon>
            <path d="M232.564465,47 L242.783761,47 C246.269208,47 249.087416,48.2618297 250.97939,50.0515247 C252.884534,51.8790747 254.008305,53.5446898 254.008305,56.8633018 L254.008305,57.6519453 C253.998172,59.7090163 253.306464,61.7098526 252.032926,63.3659306 C250.935493,64.8380652 250.057547,65.46898 248.284095,66.1377497 L255.564465,77 L247.882435,77 L238.883484,63.7318612 L238.883484,77 L232.588609,77 L232.564465,47 Z M247.564465,56.929078 C247.569335,55.8859785 247.10367,54.8846331 246.271552,54.1489362 C245.423316,53.4154002 243.813493,53 242.235592,53 L238.564465,53 L238.564465,60.9817629 L241.08637,60.9817629 L241.08637,61 L243.266244,61 C245.646776,61 247.564465,59.1296859 247.564465,56.929078 L247.564465,56.929078 Z" id="Shape"></path>
            <path d="M264.981875,70.9685573 C266.637867,70.9685573 268.465313,69.6075528 268.465313,67.9714515 C268.465313,65.2825368 264.810421,64.9019519 262.748795,64.1945605 C259.11063,62.9680016 255.899009,60.0143322 255.899009,55.9954388 C255.902472,51.2678821 259.602228,47.348506 264.369795,47.02182 C269.137363,46.695134 273.348046,50.0724665 274.010377,54.7544012 L268.057587,55.9954388 C268.052391,54.3424677 266.693602,53.0066371 265.022647,53.0117777 C263.351693,53.0169182 262.001329,54.3610833 262.006525,56.0140543 C262.006525,58.6719432 265.408418,59.3793346 267.478408,59.987443 C271.242027,61.0609405 274.564465,63.8987798 274.564465,68.0066143 C274.564465,72.983175 270.048123,77 265.027875,77 C260.41326,77 256.246099,73.6533353 255.564465,69.2600622 L261.517255,68.0066143 C261.517255,69.661331 263.327974,70.9954465 265.009057,70.9954465 L264.981875,70.9685573 Z" id="Path"></path>
        </g>
    </g>
</svg>