<svg xmlns="http://www.w3.org/2000/svg" width="83" height="83" viewBox="0 0 83 83">
    <defs>
        <filter id="nez5v17p3a">
            <feColorMatrix in="SourceGraphic" values="0 0 0 0 1.000000 0 0 0 0 0.858824 0 0 0 0 0.498039 0 0 0 1.000000 0"/>
        </filter>
    </defs>
    <g fill="none" fill-rule="evenodd">
        <g>
            <g transform="translate(-755 -2924) translate(755 2924)">
                <rect width="82" height="82" x=".5" y=".5" fill="#FFF" stroke="#FFEDDA" rx="10"/>
                <g>
                    <g fill="#FFB800" fill-rule="nonzero">
                        <path d="M27 19c0-.6-.4-1-1-1v-7c0-6.1-4.9-11-11-11S4 4.9 4 11v7c-.6 0-1 .4-1 1-1.7 0-3 1.3-3 3v16c0 1.7 1.3 3 3 3 0 1.7 1.3 3 3 3h18c1.7 0 3-1.3 3-3 1.7 0 3-1.3 3-3V22c0-1.7-1.3-3-3-3zM6 11c0-5 4-9 9-9s9 4 9 9v7h-2v-7c0-3.9-3.1-7-7-7s-7 3.1-7 7v7H6v-7zm14 0v7c-.6 0-1 .4-1 1h-8c0-.6-.4-1-1-1v-7c0-2.8 2.2-5 5-5s5 2.2 5 5zm4 31H6c-.6 0-1-.4-1-1h20c0 .6-.4 1-1 1zm4-19h-4.5c-.3 0-.5.2-.5.5s.2.5.5.5H28v3h-4.5c-.3 0-.5.2-.5.5s.2.5.5.5H28v3h-4.5c-.3 0-.5.2-.5.5s.2.5.5.5H28v3h-4.5c-.3 0-.5.2-.5.5s.2.5.5.5H28v2c0 .6-.4 1-1 1H3c-.6 0-1-.4-1-1v-2h4.5c.3 0 .5-.2.5-.5s-.2-.5-.5-.5H2v-3h4.5c.3 0 .5-.2.5-.5s-.2-.5-.5-.5H2v-3h4.5c.3 0 .5-.2.5-.5s-.2-.5-.5-.5H2v-3h4.5c.3 0 .5-.2.5-.5s-.2-.5-.5-.5H2v-1c0-.6.4-1 1-1h24c.6 0 1 .4 1 1v1z" transform="translate(28 18)"/>
                    </g>
                    <g filter="url(#nez5v17p3a)" transform="translate(28 18)">
                        <g fill="#2B3036" fill-rule="nonzero">
                            <path d="M11.277 5.287c.124-.224.252-.606.252-.918 0-.56-.21-1.053-.676-1.462-.251-.219-.54-.386-.852-.492V.387L8.897 0v2.271H7.43c.224.109.434.248.624.414.246.21.446.473.585.772.083.185.14.382.167.584h.288c.27 0 .515.207.515.478 0 .304-.271.489-.556.52-.135.01-.25.018-.354.027l-.037.1c.107.074.208.156.301.248.161.159.3.34.412.538.086.15.157.31.212.475.083.002.168.004.257.009.206.01.403.092.558.234.153.144.229.31.229.516 0 .422-.36.722-.775.722H9.66c-.032.141-.075.279-.129.412-.136.326-.333.62-.58.865-.208.206-.448.374-.71.497H8.9v1.931l1.104.387V9.68c.694-.03 1.296-.267 1.734-.704.458-.46.692-1.031.692-1.686-.002-.842-.455-1.661-1.152-2.003z" transform="translate(7.571 24)"/>
                            <path d="M8.272 5.287c.125-.224.254-.606.254-.918 0-.56-.21-1.053-.68-1.462-.404-.35-.886-.557-1.43-.618V.387L5.304 0v2.271L2.624 2.27c-.105 0-.19.089-.19.198 0 .11.084.198.19.198h3.818l-.276.395H3.931v.962H3.26c-.105 0-.19.089-.19.198 0 .109.085.197.19.198h1.82l-.276.395H3.93v.962H1.417c-.105 0-.19.089-.19.198 0 .109.085.197.19.198h3.662l-.275.396H3.93v.961H2.624c-.105 0-.19.089-.19.198 0 .11.085.198.19.198H4.85l-.276.395h-.643v.962H.619c-.105 0-.19.088-.19.197 0 .11.085.198.19.198l4.686.006v1.931l1.11.387V9.683h.427c.76 0 1.42-.24 1.891-.707.46-.46.696-1.031.696-1.686 0-.842-.456-1.661-1.157-2.003zM5.67 4.041h.407c.273 0 .519.207.519.479 0 .304-.273.488-.56.519l-.366.027V4.041zm1.172 3.867H5.67V6.432c.402-.002.746-.015 1.161.005.207.01.404.092.56.233.154.144.23.31.23.517.001.42-.362.721-.78.721z" transform="translate(7.571 24)"/>
                        </g>
                    </g>
                </g>
            </g>
        </g>
    </g>
</svg>
