<svg xmlns="http://www.w3.org/2000/svg" width="732" height="10" viewBox="0 0 732 10">
    <defs>
        <filter id="qkty58sjva">
            <feColorMatrix in="SourceGraphic" values="0 0 0 0 0.996078 0 0 0 0 0.866667 0 0 0 0 0.619608 0 0 0 1.000000 0"/>
        </filter>
    </defs>
    <g fill="none" fill-rule="evenodd">
        <g filter="url(#qkty58sjva)" transform="translate(-433 -1581)">
            <g stroke="#111337" stroke-width="1.75">
                <path d="M0 7.5C10.817 7.5 12.847 0 19.6 0c6.754 0 7.109 7.5 18.9 7.5M153.5 7.5c10.817 0 12.847-7.5 19.6-7.5 6.754 0 7.109 7.5 18.9 7.5M77 7.5C87.817 7.5 89.847 0 96.6 0c6.754 0 7.109 7.5 18.9 7.5M231 7.5c10.817 0 12.847-7.5 19.6-7.5 6.754 0 7.109 7.5 18.9 7.5" transform="translate(433 1582)"/>
                <path d="M38 7.5C48.817 7.5 50.847 0 57.6 0c6.754 0 7.109 7.5 18.9 7.5M192.5 7.5c10.817 0 12.847-7.5 19.6-7.5 6.754 0 7.109 7.5 18.9 7.5M115.5 7.5c10.817 0 12.847-7.5 19.6-7.5 6.754 0 7.109 7.5 18.9 7.5M269 7.5c10.817 0 12.847-7.5 19.6-7.5 6.754 0 7.109 7.5 18.9 7.5M308 7.5c10.817 0 12.847-7.5 19.6-7.5 6.754 0 7.109 7.5 18.9 7.5M461.5 7.5c10.817 0 12.847-7.5 19.6-7.5 6.754 0 7.109 7.5 18.9 7.5M385 7.5c10.817 0 12.847-7.5 19.6-7.5 6.754 0 7.109 7.5 18.9 7.5" transform="translate(433 1582)"/>
                <path d="M346 7.5c10.817 0 12.847-7.5 19.6-7.5 6.754 0 7.109 7.5 18.9 7.5M500.5 7.5c10.817 0 12.847-7.5 19.6-7.5 6.754 0 7.109 7.5 18.9 7.5M423.5 7.5c10.817 0 12.847-7.5 19.6-7.5 6.754 0 7.109 7.5 18.9 7.5M654.5 7.5c10.817 0 12.847-7.5 19.6-7.5 6.754 0 7.109 7.5 18.9 7.5M578 7.5c10.817 0 12.847-7.5 19.6-7.5 6.754 0 7.109 7.5 18.9 7.5M539 7.5c10.817 0 12.847-7.5 19.6-7.5 6.754 0 7.109 7.5 18.9 7.5M693.5 7.5c10.817 0 12.847-7.5 19.6-7.5 6.754 0 7.109 7.5 18.9 7.5" transform="translate(433 1582)"/>
                <path d="M616.5 7.5c10.817 0 12.847-7.5 19.6-7.5 6.754 0 7.109 7.5 18.9 7.5" transform="translate(433 1582)"/>
            </g>
        </g>
    </g>
</svg>
