<?xml version="1.0" encoding="utf-8"?>
<!-- Generator: Adobe Illustrator 25.0.0, SVG Export Plug-In . SVG Version: 6.00 Build 0)  -->
<svg version="1.1" id="Layer_1" xmlns="http://www.w3.org/2000/svg" xmlns:xlink="http://www.w3.org/1999/xlink" x="0px" y="0px"
	 viewBox="0 0 83 83" style="enable-background:new 0 0 83 83;" xml:space="preserve">
<style type="text/css">
	.st0{fill-rule:evenodd;clip-rule:evenodd;fill:#FFFFFF;stroke:#FFEDDA;}
	.st1{clip-path:url(#SVGID_2_);fill:#FFB700;}
	.st2{clip-path:url(#SVGID_4_);fill:#FFB700;}
	.st3{clip-path:url(#SVGID_6_);fill:#FDD97D;}
	.st4{clip-path:url(#SVGID_8_);fill:#FDD97D;}
</style>
<g id="Designs">
	<g id="Brute-Brothers-Home" transform="translate(-757.000000, -3335.000000)">
		<g id="Group-37" transform="translate(757.000000, 3335.000000)">
			<path id="Rectangle" class="st0" d="M10.5,0.5h62c5.5,0,10,4.5,10,10v62c0,5.5-4.5,10-10,10h-62c-5.5,0-10-4.5-10-10v-62
				C0.5,5,5,0.5,10.5,0.5z"/>
		</g>
	</g>
</g>
<g>
	<g>
		<defs>
			<path id="SVGID_1_" d="M37.9,59.5h-2c-0.6,0-1,0.4-1,1c0,0.6,0.4,1,1,1h2c0.6,0,1-0.4,1-1C38.9,60,38.5,59.5,37.9,59.5L37.9,59.5
				z"/>
		</defs>
		<clipPath id="SVGID_2_">
			<use xlink:href="#SVGID_1_"  style="overflow:visible;"/>
		</clipPath>
		<rect x="29.9" y="54.5" class="st1" width="14" height="12"/>
	</g>
	<g>
		<defs>
			<path id="SVGID_3_" d="M64.1,49.5H51.9v-8h9.2c0.5,1.4,1.9,2.2,3.3,2c1.4-0.2,2.5-1.5,2.5-3c0-1.5-1.1-2.7-2.5-3
				c-1.4-0.2-2.8,0.6-3.3,2h-9.2v-8h12.2c0.5,1.4,1.9,2.2,3.3,2c1.4-0.2,2.5-1.5,2.5-3c0-1.5-1.1-2.7-2.5-3c-1.4-0.2-2.8,0.6-3.3,2
				H51.9v-8c0-2.8-2.2-5-5-5h-20c-2.8,0-5,2.2-5,5v38c0,1.3,0.5,2.6,1.5,3.5c0.9,0.9,2.2,1.5,3.5,1.5h20c2.8,0,5-2.2,5-5v-8h12.2
				c0.5,1.4,1.9,2.2,3.3,2c1.4-0.2,2.5-1.5,2.5-3c0-1.5-1.1-2.7-2.5-3C66,47.3,64.6,48.1,64.1,49.5L64.1,49.5z M63.9,39.5
				c0.6,0,1,0.4,1,1c0,0.6-0.4,1-1,1c-0.6,0-1-0.4-1-1C62.9,40,63.3,39.5,63.9,39.5L63.9,39.5z M66.9,29.5c0.6,0,1,0.4,1,1
				c0,0.6-0.4,1-1,1c-0.6,0-1-0.4-1-1C65.9,30,66.3,29.5,66.9,29.5L66.9,29.5z M49.9,49.5c-0.7,0-0.1,0.5-3.2-3.6
				c0,0-0.1-0.1-0.1-0.1c0.7-1.3,1.2-2.8,1.4-4.3h2V49.5L49.9,49.5z M45.9,40.5c0,5-4,9-9,9c-5,0-9-4-9-9c0-5,4-9,9-9
				c2.4,0,4.7,0.9,6.4,2.6C45,35.8,45.9,38.1,45.9,40.5L45.9,40.5L45.9,40.5z M49.9,39.5h-2c-0.1-1.5-0.6-3-1.3-4.3
				c0.2-0.2-0.4,0.6,2.8-3.7h0.5V39.5L49.9,39.5z M26.9,18.5h20c1.7,0,3,1.3,3,3v1h-26v-1C23.9,19.9,25.2,18.5,26.9,18.5L26.9,18.5z
				 M46.9,62.5h-20c-1.7,0-3-1.3-3-3v-1h26v1C49.9,61.2,48.6,62.5,46.9,62.5L46.9,62.5z M49.9,56.5h-26v-32h26v5c-2,0-1.1-0.5-4.5,4
				c-6.6-8-19.5-3.2-19.5,7c0,10.2,12.9,15,19.5,7c3.3,4.4,2.5,4,4.5,4V56.5L49.9,56.5z M66.9,51.5c-0.6,0-1-0.4-1-1
				c0-0.6,0.4-1,1-1c0.6,0,1,0.4,1,1C67.9,51.1,67.5,51.5,66.9,51.5L66.9,51.5z"/>
		</defs>
		<clipPath id="SVGID_4_">
			<use xlink:href="#SVGID_3_"  style="overflow:visible;"/>
		</clipPath>
		<rect x="16.9" y="11.5" class="st2" width="58" height="58"/>
	</g>
	<g>
		<defs>
			<path id="SVGID_5_" d="M40.7,39.8c0.1-0.2,0.3-0.6,0.3-0.9c0-0.6-0.2-1.1-0.7-1.5c-0.3-0.2-0.5-0.4-0.9-0.5v-2l-1.1-0.4v2.3h-1.5
				c0.2,0.1,0.4,0.2,0.6,0.4l0,0c0.2,0.2,0.4,0.5,0.6,0.8c0.1,0.2,0.1,0.4,0.2,0.6h0.3c0.3,0,0.5,0.2,0.5,0.5c0,0.3-0.3,0.5-0.6,0.5
				c-0.1,0-0.2,0-0.4,0c0,0,0,0.1,0,0.1c0.1,0.1,0.2,0.2,0.3,0.2c0.2,0.2,0.3,0.3,0.4,0.5c0.1,0.2,0.2,0.3,0.2,0.5
				c0.1,0,0.2,0,0.3,0c0.2,0,0.4,0.1,0.6,0.2c0.2,0.1,0.2,0.3,0.2,0.5c0,0.4-0.4,0.7-0.8,0.7h-0.2c0,0.1-0.1,0.3-0.1,0.4
				c-0.1,0.3-0.3,0.6-0.6,0.9l0,0l0,0c-0.2,0.2-0.4,0.4-0.7,0.5h0.7v1.9l1.1,0.4v-2.3c0.7,0,1.3-0.3,1.7-0.7c0.5-0.5,0.7-1,0.7-1.7
				C41.9,41,41.4,40.1,40.7,39.8L40.7,39.8z"/>
		</defs>
		<clipPath id="SVGID_6_">
			<use xlink:href="#SVGID_5_"  style="overflow:visible;"/>
		</clipPath>
		<rect x="31.9" y="29.5" class="st3" width="15" height="22"/>
	</g>
	<g>
		<defs>
			<path id="SVGID_7_" d="M37.7,39.8c0.1-0.2,0.3-0.6,0.3-0.9c0-0.6-0.2-1.1-0.7-1.5c-0.4-0.4-0.9-0.6-1.4-0.6v-1.9l-1.1-0.4v2.3
				l-2.7,0c-0.1,0-0.2,0.1-0.2,0.2l0,0c0,0.1,0.1,0.2,0.2,0.2h3.8l-0.3,0.4h-2.2v1h-0.7c-0.1,0-0.2,0.1-0.2,0.2l0,0
				c0,0.1,0.1,0.2,0.2,0.2h1.8l-0.3,0.4h-0.9v1h-2.5c-0.1,0-0.2,0.1-0.2,0.2l0,0c0,0.1,0.1,0.2,0.2,0.2h3.7l-0.3,0.4h-0.9v1h-1.3
				c-0.1,0-0.2,0.1-0.2,0.2l0,0c0,0.1,0.1,0.2,0.2,0.2h2.2L34,42.8h-0.6v1h-3.3c-0.1,0-0.2,0.1-0.2,0.2l0,0c0,0.1,0.1,0.2,0.2,0.2
				l4.7,0v1.9l1.1,0.4v-2.3h0.4c0.8,0,1.4-0.2,1.9-0.7c0.5-0.5,0.7-1,0.7-1.7C38.9,41,38.4,40.1,37.7,39.8L37.7,39.8z M35.1,38.6
				h0.4c0.3,0,0.5,0.2,0.5,0.5c0,0.3-0.3,0.5-0.6,0.5c-0.1,0-0.3,0-0.4,0V38.6L35.1,38.6z M36.3,42.4h-1.2v-1.5c0.4,0,0.7,0,1.2,0
				c0.2,0,0.4,0.1,0.6,0.2c0.2,0.1,0.2,0.3,0.2,0.5C37.1,42.1,36.7,42.4,36.3,42.4L36.3,42.4L36.3,42.4z"/>
		</defs>
		<clipPath id="SVGID_8_">
			<use xlink:href="#SVGID_7_"  style="overflow:visible;"/>
		</clipPath>
		<rect x="24.9" y="29.5" class="st4" width="19" height="22"/>
	</g>
</g>
</svg>
