<?xml version="1.0" encoding="utf-8"?>
<!-- Generator: Adobe Illustrator 25.0.0, SVG Export Plug-In . SVG Version: 6.00 Build 0)  -->
<svg version="1.1" id="Layer_1" xmlns="http://www.w3.org/2000/svg" xmlns:xlink="http://www.w3.org/1999/xlink" x="0px" y="0px"
	 viewBox="0 0 83 83" style="enable-background:new 0 0 83 83;" xml:space="preserve">
<style type="text/css">
	.st0{fill-rule:evenodd;clip-rule:evenodd;fill:#FFFFFF;stroke:#FFEDDA;}
	.st1{fill:#FDB600;}
	.st2{fill:#FFDB7F;}
</style>
<g id="Designs">
	<g id="Brute-Brothers-Home" transform="translate(-759.000000, -2511.000000)">
		<g id="Group-25" transform="translate(759.000000, 2511.000000)">
			<path id="Rectangle" class="st0" d="M10.5,0.5h62c5.5,0,10,4.5,10,10v62c0,5.5-4.5,10-10,10h-62c-5.5,0-10-4.5-10-10v-62
				C0.5,5,5,0.5,10.5,0.5z"/>
			<g id="Group-5" transform="translate(19.000000, 21.000000)">
				<g id="wallet">
					<g>
						<circle id="Oval" class="st1" cx="35" cy="25" r="1"/>
						<path id="Path" class="st1" d="M33.5,17h4c0.3,0,0.5-0.2,0.5-0.5S37.8,16,37.5,16h-4c-0.3,0-0.5,0.2-0.5,0.5S33.2,17,33.5,17z
							"/>
						<path id="Shape" class="st1" d="M20.5,15h7.6c0.2,0.6,0.8,1,1.4,1c0.8,0,1.5-0.7,1.5-1.5S30.3,13,29.5,13
							c-0.7,0-1.2,0.4-1.4,1h-7.6c-0.3,0-0.5,0.2-0.5,0.5S20.2,15,20.5,15z M29.5,14c0.3,0,0.5,0.2,0.5,0.5S29.8,15,29.5,15
							S29,14.8,29,14.5S29.2,14,29.5,14z"/>
						<path id="Shape_1_" class="st1" d="M28.5,34c-0.8,0-1.5,0.7-1.5,1.5s0.7,1.5,1.5,1.5c0.7,0,1.2-0.4,1.4-1h5.6
							c0.3,0,0.5-0.2,0.5-0.5S35.8,35,35.5,35h-5.6C29.7,34.4,29.2,34,28.5,34z M28.5,36c-0.3,0-0.5-0.2-0.5-0.5s0.2-0.5,0.5-0.5
							s0.5,0.2,0.5,0.5S28.8,36,28.5,36z"/>
						<path id="Shape_2_" class="st1" d="M42,20.2V13c0-1.6-1.3-3-3-3c-1.5-3.1-4.6-5-8-5c-0.3,0-0.6,0-0.9,0.1
							C28.6,2.1,25.6,0,22,0c-2.8,0-5.3,1.3-6.9,3.3C14.4,3.1,13.7,3,13,3c-4.3,0-7.9,3-8.8,7.1C2.9,10.5,2,11.6,2,13v11
							c-1.2,1.7-2,3.7-2,6s0.8,4.3,2,6v1c0,1.7,1.3,3,3,3h34c1.7,0,3-1.3,3-3v-7.2c1.2-0.4,2-1.5,2-2.8v-4
							C44,21.7,43.2,20.6,42,20.2z M31,7c2.3,0,4.5,1.1,5.7,3h-5.8c0-0.3,0.1-0.7,0.1-1c0-0.7-0.1-1.3-0.2-2C30.8,7,30.9,7,31,7z
							 M22,2c3.9,0,7,3.1,7,7c0,0.3,0,0.7-0.1,1H15.1C15,9.7,15,9.3,15,9C15,5.1,18.1,2,22,2z M13,5c0.3,0,0.6,0,0.9,0.1
							C13.3,6.3,13,7.6,13,9c0,0.3,0,0.7,0.1,1H6.3C7.2,7.1,9.9,5,13,5z M4,13c0-0.6,0.4-1,1-1h0.1H39c0.6,0,1,0.4,1,1v7h-7
							c-0.4,0-0.7,0.1-1.1,0.2l-1.5-1.5C30,18.3,29.3,18,28.7,18h-7.3c-0.4,0-0.8-0.2-1.1-0.4l-2.8-2.8C17,14.3,16.3,14,15.7,14H4
							V13z M4,15h11.7c0.4,0,0.8,0.2,1.1,0.4l2.8,2.8c0.5,0.5,1.1,0.7,1.8,0.7h7.3c0.4,0,0.8,0.2,1.1,0.4l1.3,1.3
							c-0.4,0.3-0.7,0.8-0.9,1.3h-5.4c-0.7,0-1.3,0.3-1.8,0.7l-0.8,0.8c-0.3,0.3-0.7,0.4-1.1,0.4H18c-1.8-2.4-4.7-4-8-4
							c-2.3,0-4.3,0.8-6,2v-4h7.1c0.2,0.6,0.8,1,1.4,1c0.8,0,1.5-0.7,1.5-1.5c0-0.8-0.7-1.3-1.5-1.3c-0.7,0-1.2,0.4-1.4,1H4V15z
							 M12,17.5c0-0.3,0.2-0.5,0.5-0.5s0.5,0.2,0.5,0.5S12.8,18,12.5,18S12,17.8,12,17.5z M10,22c4.4,0,8,3.6,8,8s-3.6,8-8,8
							s-8-3.6-8-8S5.6,22,10,22z M40,37c0,0.6-0.4,1-1,1H16c2.4-1.8,4-4.7,4-8c0-1.8-0.5-3.5-1.4-5h2.5c0.7,0,1.3-0.3,1.8-0.7
							l0.8-0.8c0.3-0.3,0.7-0.4,1.1-0.4H30v3h-5.5c-0.3,0-0.5,0.2-0.5,0.5c0,0.3,0.2,0.5,0.5,0.5H30c0,1.3,0.8,2.4,2,2.8l-0.8,0.8
							c-0.3,0.3-0.7,0.4-1.1,0.4h-5.3c-0.2-0.6-0.8-1-1.4-1c-0.8,0-1.5,0.7-1.5,1.5s0.7,1.5,1.5,1.5c0.7,0,1.2-0.4,1.4-1h5.3
							c0.7,0,1.3-0.3,1.8-0.7l1.3-1.3H40V37z M24,31.5c0,0.3-0.2,0.5-0.5,0.5S23,31.8,23,31.5s0.2-0.5,0.5-0.5S24,31.2,24,31.5z
							 M42,27c0,0.6-0.4,1-1,1h-8c-0.6,0-1-0.4-1-1v-4c0-0.6,0.4-1,1-1h8c0.6,0,1,0.4,1,1V27z"/>
					</g>
				</g>
				<g id="emblem-07">
					<g transform="translate(3.000000, 24.000000)">
						<path id="Path_1_" class="st2" d="M11.2,5.3c0.1-0.2,0.3-0.6,0.3-0.9c0-0.6-0.2-1.1-0.7-1.5c-0.3-0.2-0.5-0.4-0.9-0.5v-2
							L8.8,0v2.3H7.3c0.2,0.1,0.4,0.2,0.6,0.4l0,0c0.2,0.2,0.4,0.5,0.6,0.8C8.6,3.6,8.7,3.8,8.7,4H9c0.3,0,0.5,0.2,0.5,0.5
							C9.5,4.8,9.2,5,8.9,5c-0.1,0-0.2,0-0.4,0c0,0,0,0.1,0,0.1c0.1,0.1,0.2,0.2,0.3,0.2C9,5.6,9.1,5.8,9.3,6
							c0.1,0.2,0.2,0.3,0.2,0.5c0.1,0,0.2,0,0.3,0c0.2,0,0.4,0.1,0.6,0.2c0.2,0.1,0.2,0.3,0.2,0.5c0,0.4-0.4,0.7-0.8,0.7H9.5
							c0,0.1-0.1,0.3-0.1,0.4C9.3,8.6,9.1,8.9,8.8,9.2l0,0l0,0C8.6,9.4,8.4,9.6,8.1,9.7h0.7v1.9L9.9,12V9.7c0.7,0,1.3-0.3,1.7-0.7
							c0.5-0.5,0.7-1,0.7-1.7C12.3,6.4,11.9,5.6,11.2,5.3z"/>
						<path id="Shape_3_" class="st2" d="M8.2,5.3c0.1-0.2,0.3-0.6,0.3-0.9c0-0.6-0.2-1.1-0.7-1.5C7.3,2.6,6.8,2.3,6.3,2.3V0.4
							L5.2,0v2.3l-2.7,0c-0.1,0-0.2,0.1-0.2,0.2l0,0c0,0.1,0.1,0.2,0.2,0.2h3.8L6,3.1H3.8v1H3.1C3,4,3,4.1,3,4.2l0,0
							C3,4.3,3,4.4,3.1,4.4H5L4.7,4.8H3.8v1H1.3C1.2,5.8,1.1,5.9,1.1,6l0,0c0,0.1,0.1,0.2,0.2,0.2H5L4.7,6.6H3.8v1H2.5
							c-0.1,0-0.2,0.1-0.2,0.2l0,0c0,0.1,0.1,0.2,0.2,0.2h2.2L4.5,8.3H3.8v1H0.5c-0.1,0-0.2,0.1-0.2,0.2l0,0c0,0.1,0.1,0.2,0.2,0.2
							l4.7,0v1.9L6.3,12V9.7h0.4c0.8,0,1.4-0.2,1.9-0.7c0.5-0.5,0.7-1,0.7-1.7C9.3,6.4,8.9,5.6,8.2,5.3z M5.6,4H6
							c0.3,0,0.5,0.2,0.5,0.5C6.5,4.8,6.2,5,5.9,5c-0.1,0-0.3,0-0.4,0V4z M6.7,7.9H5.6V6.4c0.4,0,0.7,0,1.2,0c0.2,0,0.4,0.1,0.6,0.2
							C7.4,6.8,7.5,7,7.5,7.2C7.5,7.6,7.1,7.9,6.7,7.9L6.7,7.9z"/>
					</g>
				</g>
			</g>
		</g>
	</g>
</g>
</svg>
