<svg xmlns="http://www.w3.org/2000/svg" width="83" height="83" viewBox="0 0 83 83">
    <defs>
        <filter id="whwvvmgl3a">
            <feColorMatrix in="SourceGraphic" values="0 0 0 0 1.000000 0 0 0 0 0.721569 0 0 0 0 0.000000 0 0 0 1.000000 0"/>
        </filter>
        <filter id="u1nvdi0flb">
            <feColorMatrix in="SourceGraphic" values="0 0 0 0 1.000000 0 0 0 0 0.858824 0 0 0 0 0.498039 0 0 0 1.000000 0"/>
        </filter>
    </defs>
    <g fill="none" fill-rule="evenodd">
        <g>
            <g transform="translate(-758 -1230) translate(758 1230)">
                <rect width="82" height="82" x=".5" y=".5" fill="#FFF" stroke="#FFEDDA" rx="10"/>
                <g>
                    <g fill="#000" fill-rule="nonzero" filter="url(#whwvvmgl3a)" transform="translate(22 17)">
                        <path d="M16 43h-2c-.552 0-1 .448-1 1s.448 1 1 1h2c.552 0 1-.448 1-1s-.448-1-1-1z"/>
                        <path d="M42.18 33H30v-8h9.18c.487 1.378 1.896 2.204 3.336 1.957 1.44-.247 2.492-1.496 2.492-2.957 0-1.461-1.052-2.71-2.492-2.957-1.44-.247-2.849.58-3.336 1.957H30v-8h12.18c.487 1.378 1.896 2.204 3.336 1.957 1.44-.247 2.492-1.496 2.492-2.957 0-1.461-1.052-2.71-2.492-2.957-1.44-.247-2.849.58-3.336 1.957H30V5c0-2.761-2.239-5-5-5H5C2.239 0 0 2.239 0 5v38c0 1.326.527 2.598 1.464 3.536C2.402 47.473 3.674 48 5 48h20c2.761 0 5-2.239 5-5v-8h12.18c.487 1.378 1.896 2.204 3.336 1.957 1.44-.247 2.492-1.496 2.492-2.957 0-1.461-1.052-2.71-2.492-2.957-1.44-.247-2.849.58-3.336 1.957zM42 23c.552 0 1 .448 1 1s-.448 1-1 1-1-.448-1-1 .448-1 1-1zm3-10c.552 0 1 .448 1 1s-.448 1-1 1-1-.448-1-1 .448-1 1-1zM28 33c-.7 0-.09.54-3.2-3.6-.045-.049-.096-.092-.15-.13.74-1.315 1.2-2.769 1.35-4.27h2v8zm-4-9c0 4.97-4.03 9-9 9s-9-4.03-9-9 4.03-9 9-9c2.387 0 4.676.948 6.364 2.636C23.052 19.324 24 21.613 24 24zm4-1h-2c-.133-1.498-.576-2.952-1.3-4.27.24-.22-.39.59 2.85-3.73H28v8zM5 2h20c1.657 0 3 1.343 3 3v1H2V5c0-1.657 1.343-3 3-3zm20 44H5c-1.657 0-3-1.343-3-3v-1h26v1c0 1.657-1.343 3-3 3zm3-6H2V8h26v5c-1.95 0-1.14-.48-4.51 4C16.91 9 4 13.78 4 24s12.91 15 19.49 7c3.32 4.42 2.51 4 4.51 4v5zm17-5c-.552 0-1-.448-1-1s.448-1 1-1 1 .448 1 1-.448 1-1 1z"/>
                    </g>
                    <g filter="url(#u1nvdi0flb)" transform="translate(22 17)">
                        <g fill="#2B3036" fill-rule="nonzero">
                            <path d="M11.159 5.287c.123-.224.251-.606.251-.918 0-.56-.21-1.053-.675-1.462-.251-.219-.54-.386-.852-.492V.387L8.78 0v2.271H7.31c.225.109.435.248.625.414.246.21.445.473.584.772.084.185.14.382.168.584h.287c.271 0 .516.207.516.478 0 .304-.272.489-.557.52-.134.01-.25.018-.354.027-.012.034-.024.068-.037.1.108.074.209.156.302.248.16.159.3.34.412.538.085.15.156.31.211.475.084.002.169.004.258.009.206.01.402.092.558.234.153.144.229.31.229.516 0 .422-.36.722-.776.722h-.195c-.031.141-.074.279-.128.412-.136.326-.333.62-.58.865-.208.206-.448.374-.71.497h.657v1.931L9.885 12V9.68c.693-.03 1.296-.267 1.733-.704.458-.46.692-1.031.692-1.686-.001-.842-.455-1.661-1.151-2.003z" transform="translate(7.69 18)"/>
                            <path d="M8.154 5.287c.125-.224.253-.606.253-.918 0-.56-.21-1.053-.679-1.462-.404-.35-.887-.557-1.431-.618V.387L5.187 0v2.271L2.504 2.27c-.105 0-.19.089-.19.198 0 .11.085.198.19.198h3.818l-.275.395H3.812v.962h-.67c-.106 0-.19.089-.19.198 0 .109.084.197.19.198h1.82l-.277.395h-.873v.962H1.298c-.104 0-.189.089-.189.198 0 .109.084.197.19.198H4.96l-.276.396h-.873v.961H2.505c-.105 0-.19.089-.19.198 0 .11.085.198.19.198h2.227l-.276.395h-.644v.962H.5c-.105 0-.19.088-.19.197 0 .11.085.198.19.198l4.686.006v1.931l1.11.387V9.683h.427c.76 0 1.421-.24 1.892-.707.46-.46.695-1.031.695-1.686 0-.842-.455-1.661-1.156-2.003zM5.552 4.041h.407c.272 0 .518.207.518.479 0 .304-.273.488-.56.519l-.365.027V4.041zm1.171 3.867H5.552V6.432c.402-.002.746-.015 1.16.005.207.01.405.092.56.233.155.144.231.31.231.517.001.42-.362.721-.78.721z" transform="translate(7.69 18)"/>
                        </g>
                    </g>
                </g>
            </g>
        </g>
    </g>
</svg>
