<?xml version="1.0" encoding="UTF-8"?>
<svg width="83px" height="83px" viewBox="0 0 83 83" version="1.1" xmlns="http://www.w3.org/2000/svg" xmlns:xlink="http://www.w3.org/1999/xlink">
    <title>Group 29</title>
    <defs>
        <filter id="filter-1">
            <feColorMatrix in="SourceGraphic" type="matrix" values="0 0 0 0 1.000000 0 0 0 0 0.858824 0 0 0 0 0.498039 0 0 0 1.000000 0"></feColorMatrix>
        </filter>
    </defs>
    <g id="Designs" stroke="none" stroke-width="1" fill="none" fill-rule="evenodd">
        <g id="Brute-Brothers-Home" transform="translate(-755.000000, -2924.000000)">
            <g id="Group-29" transform="translate(755.000000, 2924.000000)">
                <rect id="Rectangle" stroke="#FFEDDA" fill="#FFFFFF" x="0.5" y="0.5" width="82" height="82" rx="10"></rect>
                <g id="Group-5-Copy" transform="translate(28.000000, 18.000000)">
                    <g id="lock" fill="#FFB800" fill-rule="nonzero">
                        <path d="M27,19 C27,18.4 26.6,18 26,18 L26,11 C26,4.9 21.1,0 15,0 C8.9,0 4,4.9 4,11 L4,18 C3.4,18 3,18.4 3,19 C1.3,19 0,20.3 0,22 L0,38 C0,39.7 1.3,41 3,41 C3,42.7 4.3,44 6,44 L24,44 C25.7,44 27,42.7 27,41 C28.7,41 30,39.7 30,38 L30,22 C30,20.3 28.7,19 27,19 Z M6,11 C6,6 10,2 15,2 C20,2 24,6 24,11 L24,18 L22,18 L22,11 C22,7.1 18.9,4 15,4 C11.1,4 8,7.1 8,11 L8,18 L6,18 L6,11 Z M20,11 L20,18 C19.4,18 19,18.4 19,19 L11,19 C11,18.4 10.6,18 10,18 L10,11 C10,8.2 12.2,6 15,6 C17.8,6 20,8.2 20,11 Z M24,42 L6,42 C5.4,42 5,41.6 5,41 L25,41 C25,41.6 24.6,42 24,42 Z M28,23 L23.5,23 C23.2,23 23,23.2 23,23.5 C23,23.8 23.2,24 23.5,24 L28,24 L28,27 L23.5,27 C23.2,27 23,27.2 23,27.5 C23,27.8 23.2,28 23.5,28 L28,28 L28,31 L23.5,31 C23.2,31 23,31.2 23,31.5 C23,31.8 23.2,32 23.5,32 L28,32 L28,35 L23.5,35 C23.2,35 23,35.2 23,35.5 C23,35.8 23.2,36 23.5,36 L28,36 L28,38 C28,38.6 27.6,39 27,39 L3,39 C2.4,39 2,38.6 2,38 L2,36 L6.5,36 C6.8,36 7,35.8 7,35.5 C7,35.2 6.8,35 6.5,35 L2,35 L2,32 L6.5,32 C6.8,32 7,31.8 7,31.5 C7,31.2 6.8,31 6.5,31 L2,31 L2,28 L6.5,28 C6.8,28 7,27.8 7,27.5 C7,27.2 6.8,27 6.5,27 L2,27 L2,24 L6.5,24 C6.8,24 7,23.8 7,23.5 C7,23.2 6.8,23 6.5,23 L2,23 L2,22 C2,21.4 2.4,21 3,21 L27,21 C27.6,21 28,21.4 28,22 L28,23 Z" id="Shape"></path>
                    </g>
                    <g filter="url(#filter-1)" id="emblem-07">
                        <g transform="translate(7.571429, 24.000000)">
                            <path d="M11.277061,5.28710706 C11.4008765,5.06296128 11.5286185,4.6805467 11.5286185,4.36865604 C11.5286185,3.80938497 11.3192054,3.31571754 10.8532612,2.90733485 C10.6020426,2.68800451 10.3128981,2.52098288 10.0014734,2.41530752 L10.0014734,0.386514806 L8.89708093,0 L8.89708093,2.27125285 L7.42857143,2.27125285 C7.65316082,2.38004657 7.863138,2.51908774 8.05314606,2.68482916 C8.29932603,2.89490447 8.49878171,3.15840345 8.63767043,3.45703872 C8.72106075,3.6418382 8.77744384,3.83865043 8.80493916,4.04091116 L9.0928822,4.04091116 C9.36381042,4.04091116 9.60803847,4.24783599 9.60803847,4.51899772 C9.60803847,4.82296128 9.33658672,5.00801822 9.05178487,5.03835991 C8.91749871,5.0490205 8.80179796,5.05749431 8.69761493,5.06569476 C8.68574819,5.10013667 8.67344517,5.13375854 8.66070587,5.16656036 C8.76808595,5.23956965 8.86900536,5.32245033 8.96226076,5.41421412 C9.12303249,5.57251219 9.26172612,5.75359604 9.37428108,5.95216401 C9.45974107,6.10264851 9.53051138,6.26171557 9.58552656,6.42697039 C9.66929181,6.42861048 9.75436589,6.43134396 9.84336647,6.43571754 C10.0492746,6.44570288 10.245884,6.52817312 10.4011907,6.66970387 C10.554324,6.81403189 10.6299745,6.97968109 10.6299745,7.18633257 C10.6299745,7.60783599 10.2695222,7.90824601 9.85462242,7.90824601 L9.65986822,7.90824601 C9.62842615,8.04909987 9.58533472,8.18683781 9.53107915,8.31990888 C9.39523396,8.64599332 9.1979632,8.9402115 8.95100481,9.18505695 C8.74304005,9.3911974 8.50331193,9.5592888 8.24187963,9.6822779 L8.89865153,9.6822779 L8.89865153,11.6132118 L10.003044,12 L10.003044,9.67981777 C10.6967249,9.65056948 11.2993112,9.41302961 11.7367228,8.97621868 C12.1945523,8.51507973 12.4285714,7.94487472 12.4285714,7.29047836 C12.4270008,6.44829157 11.9736214,5.62851936 11.277061,5.28710706 Z" id="Path" fill="#FFDB7F" fill-rule="nonzero"></path>
                            <path d="M8.27248499,5.28710706 C8.39722548,5.06296128 8.52565029,4.6805467 8.52565029,4.36865604 C8.52565029,3.80938497 8.31511782,3.31571754 7.8464199,2.90733485 C7.44193439,2.5571754 6.95981503,2.34970387 6.41506226,2.28929385 L6.41506226,0.386514806 L5.30476664,0 L5.30476664,2.27125285 L2.62363561,2.26933941 C2.51851044,2.2693393 2.43324893,2.35777761 2.43310372,2.46697039 L2.43310372,2.46697039 C2.43310372,2.57626993 2.51840776,2.66487472 2.62363561,2.66487472 L6.44190515,2.66487472 L6.16610761,3.06041002 L3.93051593,3.06041002 L3.93051593,4.02205011 L3.25997001,4.02205011 C3.15488749,4.02205011 3.06970129,4.11053252 3.06970129,4.21968109 L3.06970129,4.21968109 C3.06970119,4.32887398 3.15484494,4.4174346 3.25997001,4.41758542 L5.07949689,4.41758542 L4.80369936,4.81312073 L3.93051593,4.81312073 L3.93051593,5.77476082 L1.41675822,5.77476082 C1.31204459,5.77551198 1.22753966,5.86389713 1.22754216,5.97266515 L1.22754216,5.97266515 C1.22725044,6.08160134 1.31188137,6.17024055 1.41675822,6.17084282 L5.07949689,6.17084282 L4.80369936,6.56665148 L3.93051593,6.56665148 L3.93051593,7.52829157 L2.62363561,7.52829157 C2.51851044,7.52829147 2.43324893,7.61672977 2.43310372,7.72592255 L2.43310372,7.72592255 C2.43324893,7.83511533 2.51851044,7.92355363 2.62363561,7.92355353 L4.8500165,7.92355353 L4.57421896,8.31936219 L3.93051593,8.31936219 L3.93051593,9.28100228 L0.61884015,9.28100228 C0.513860324,9.28100217 0.428716629,9.3693181 0.428571429,9.47835991 L0.428571429,9.47835991 C0.428571429,9.58750848 0.513757637,9.67599089 0.61884015,9.67599089 L5.30476664,9.6822779 L5.30476664,11.6132118 L6.41506226,12 L6.41506226,9.68309795 L6.84165368,9.68309795 C7.60141274,9.68309795 8.26274787,9.44364465 8.73328794,8.97621868 C9.19356456,8.51507973 9.42857143,7.94487472 9.42857143,7.29047836 C9.42857143,6.44829157 8.97303179,5.62851936 8.27248499,5.28710706 Z M5.67030364,4.04145786 L6.07742081,4.04145786 C6.3497972,4.04145786 6.59559386,4.24838269 6.59559386,4.51954442 C6.59559386,4.82350797 6.32269114,5.00829157 6.03636698,5.03890661 C5.89715238,5.04984055 5.77741204,5.0585877 5.67030364,5.06624146 L5.67030364,4.04145786 Z M6.84165368,7.90824601 L5.67030364,7.90824601 L5.67030364,6.43216401 C6.0721575,6.42997722 6.41611492,6.41685649 6.83112706,6.43708428 C7.03774588,6.44688257 7.23510515,6.52895799 7.39114343,6.66997722 C7.54535847,6.81430524 7.62141561,6.97995444 7.62141561,7.18660592 C7.62246599,7.60783599 7.25903431,7.90824601 6.84165368,7.90824601 L6.84165368,7.90824601 Z" id="Shape" fill="#FFDB7F" fill-rule="nonzero"></path>
                        </g>
                    </g>
                </g>
            </g>
        </g>
    </g>
</svg>