<svg xmlns="http://www.w3.org/2000/svg" width="83" height="83" viewBox="0 0 83 83">
    <defs>
        <filter id="uc66cxz9ma">
            <feColorMatrix in="SourceGraphic" values="0 0 0 0 0.992157 0 0 0 0 0.713725 0 0 0 0 0.000000 0 0 0 1.000000 0"/>
        </filter>
        <filter id="72zt784pmb">
            <feColorMatrix in="SourceGraphic" values="0 0 0 0 1.000000 0 0 0 0 0.858824 0 0 0 0 0.498039 0 0 0 1.000000 0"/>
        </filter>
    </defs>
    <g fill="none" fill-rule="evenodd">
        <g>
            <g transform="translate(-759 -2511) translate(759 2511)">
                <rect width="82" height="82" x=".5" y=".5" fill="#FFF" stroke="#FFEDDA" rx="10"/>
                <g>
                    <g fill="#000" fill-rule="nonzero" filter="url(#uc66cxz9ma)" transform="translate(19 21)">
                        <circle cx="35" cy="25" r="1"/>
                        <path d="M33.5 17h4c.3 0 .5-.2.5-.5s-.2-.5-.5-.5h-4c-.3 0-.5.2-.5.5s.2.5.5.5zM20.5 15h7.6c.2.6.8 1 1.4 1 .8 0 1.5-.7 1.5-1.5s-.7-1.5-1.5-1.5c-.7 0-1.2.4-1.4 1h-7.6c-.3 0-.5.2-.5.5s.2.5.5.5zm9-1c.3 0 .5.2.5.5s-.2.5-.5.5-.5-.2-.5-.5.2-.5.5-.5zM28.5 34c-.8 0-1.5.7-1.5 1.5s.7 1.5 1.5 1.5c.7 0 1.2-.4 1.4-1h5.6c.3 0 .5-.2.5-.5s-.2-.5-.5-.5h-5.6c-.2-.6-.7-1-1.4-1zm0 2c-.3 0-.5-.2-.5-.5s.2-.5.5-.5.5.2.5.5-.2.5-.5.5z"/>
                        <path d="M42 20.2V13c0-1.6-1.3-3-3-3-1.5-3.1-4.6-5-8-5-.3 0-.6 0-.9.1C28.6 2.1 25.6 0 22 0c-2.8 0-5.3 1.3-6.9 3.3-.7-.2-1.4-.3-2.1-.3-4.3 0-7.9 3-8.8 7.1C2.9 10.5 2 11.6 2 13v11c-1.2 1.7-2 3.7-2 6s.8 4.3 2 6v1c0 1.7 1.3 3 3 3h34c1.7 0 3-1.3 3-3v-7.2c1.2-.4 2-1.5 2-2.8v-4c0-1.3-.8-2.4-2-2.8zM31 7c2.3 0 4.5 1.1 5.7 3h-5.8c0-.3.1-.7.1-1 0-.7-.1-1.3-.2-2h.2zm-9-5c3.9 0 7 3.1 7 7 0 .3 0 .7-.1 1H15.1c-.1-.3-.1-.7-.1-1 0-3.9 3.1-7 7-7zm-9 3c.3 0 .6 0 .9.1-.6 1.2-.9 2.5-.9 3.9 0 .3 0 .7.1 1H6.3c.9-2.9 3.6-5 6.7-5zm-9 8c0-.6.4-1 1-1h34c.6 0 1 .4 1 1v7h-7c-.4 0-.7.1-1.1.2l-1.5-1.5c-.4-.4-1.1-.7-1.7-.7h-7.3c-.4 0-.8-.2-1.1-.4l-2.8-2.8c-.5-.5-1.2-.8-1.8-.8H4v-1zm0 2h11.7c.4 0 .8.2 1.1.4l2.8 2.8c.5.5 1.1.7 1.8.7h7.3c.4 0 .8.2 1.1.4l1.3 1.3c-.4.3-.7.8-.9 1.3h-5.4c-.7 0-1.3.3-1.8.7l-.8.8c-.3.3-.7.4-1.1.4H18c-1.8-2.4-4.7-4-8-4-2.3 0-4.3.8-6 2v-4h7.1c.2.6.8 1 1.4 1 .8 0 1.5-.7 1.5-1.5s-.7-1.3-1.5-1.3c-.7 0-1.2.4-1.4 1H4v-2zm8 2.5c0-.3.2-.5.5-.5s.5.2.5.5-.2.5-.5.5-.5-.2-.5-.5zM10 22c4.4 0 8 3.6 8 8s-3.6 8-8 8-8-3.6-8-8 3.6-8 8-8zm30 15c0 .6-.4 1-1 1H16c2.4-1.8 4-4.7 4-8 0-1.8-.5-3.5-1.4-5h2.5c.7 0 1.3-.3 1.8-.7l.8-.8c.3-.3.7-.4 1.1-.4H30v3h-5.5c-.3 0-.5.2-.5.5s.2.5.5.5H30c0 1.3.8 2.4 2 2.8l-.8.8c-.3.3-.7.4-1.1.4h-5.3c-.2-.6-.8-1-1.4-1-.8 0-1.5.7-1.5 1.5s.7 1.5 1.5 1.5c.7 0 1.2-.4 1.4-1h5.3c.7 0 1.3-.3 1.8-.7l1.3-1.3H40V37zm-16-5.5c0 .3-.2.5-.5.5s-.5-.2-.5-.5.2-.5.5-.5.5.2.5.5zM42 27c0 .6-.4 1-1 1h-8c-.6 0-1-.4-1-1v-4c0-.6.4-1 1-1h8c.6 0 1 .4 1 1v4z"/>
                    </g>
                    <g filter="url(#72zt784pmb)" transform="translate(19 21)">
                        <g fill="#2B3036" fill-rule="nonzero">
                            <path d="M11.159 5.287c.123-.224.251-.606.251-.918 0-.56-.21-1.053-.675-1.462-.251-.219-.54-.386-.852-.492V.387L8.78 0v2.271H7.31c.225.109.435.248.625.414.246.21.445.473.584.772.084.185.14.382.168.584h.287c.271 0 .516.207.516.478 0 .304-.272.489-.557.52-.134.01-.25.018-.354.027-.012.034-.024.068-.037.1.108.074.209.156.302.248.16.159.3.34.412.538.085.15.156.31.211.475.084.002.169.004.258.009.206.01.402.092.558.234.153.144.229.31.229.516 0 .422-.36.722-.776.722h-.195c-.031.141-.074.279-.128.412-.136.326-.333.62-.58.865-.208.206-.448.374-.71.497h.657v1.931L9.885 12V9.68c.693-.03 1.296-.267 1.733-.704.458-.46.692-1.031.692-1.686-.001-.842-.455-1.661-1.151-2.003z" transform="translate(3 24)"/>
                            <path d="M8.154 5.287c.125-.224.253-.606.253-.918 0-.56-.21-1.053-.679-1.462-.404-.35-.887-.557-1.431-.618V.387L5.187 0v2.271L2.504 2.27c-.105 0-.19.089-.19.198 0 .11.085.198.19.198h3.818l-.275.395H3.812v.962h-.67c-.106 0-.19.089-.19.198 0 .109.084.197.19.198h1.82l-.277.395h-.873v.962H1.298c-.104 0-.189.089-.189.198 0 .109.084.197.19.198H4.96l-.276.396h-.873v.961H2.505c-.105 0-.19.089-.19.198 0 .11.085.198.19.198h2.227l-.276.395h-.644v.962H.5c-.105 0-.19.088-.19.197 0 .11.085.198.19.198l4.686.006v1.931l1.11.387V9.683h.427c.76 0 1.421-.24 1.892-.707.46-.46.695-1.031.695-1.686 0-.842-.455-1.661-1.156-2.003zM5.552 4.041h.407c.272 0 .518.207.518.479 0 .304-.273.488-.56.519l-.365.027V4.041zm1.171 3.867H5.552V6.432c.402-.002.746-.015 1.16.005.207.01.405.092.56.233.155.144.231.31.231.517.001.42-.362.721-.78.721z" transform="translate(3 24)"/>
                        </g>
                    </g>
                </g>
            </g>
        </g>
    </g>
</svg>
