<?xml version="1.0" encoding="UTF-8"?>
<svg width="83px" height="83px" viewBox="0 0 83 83" version="1.1" xmlns="http://www.w3.org/2000/svg" xmlns:xlink="http://www.w3.org/1999/xlink">
    <title>Group 35</title>
    <g id="Designs" stroke="none" stroke-width="1" fill="none" fill-rule="evenodd">
        <g id="Brute-Brothers-Home" transform="translate(-758.000000, -2078.000000)">
            <g id="Group-35" transform="translate(758.000000, 2078.000000)">
                <rect id="Rectangle" stroke="#FFEDDA" fill="#FFFFFF" x="0.5" y="0.5" width="82" height="82" rx="10"></rect>
                <g id="Group-2" transform="translate(24.000000, 26.000000)" fill="#FFB800">
                    <path d="M34.0708696,20.9449565 C32.1808696,18.8898261 28.9134783,19.1746957 27.3913043,21.506087 C25.866,19.1707826 22.5946957,18.8921739 20.7070435,20.9496522 C19.1113043,22.6893913 19.2936522,25.4238261 20.9488696,27.1064348 L26.8317391,33.0855652 C27.1385217,33.3970435 27.6409565,33.3970435 27.9477391,33.0855652 L33.8321739,27.1064348 C35.4905217,25.4222609 35.6705217,22.683913 34.0708696,20.9449565 Z" id="Path" opacity="0.5"></path>
                    <path d="M14.0869565,20.3478261 L6.26086957,20.3478261 C5.82808696,20.3478261 5.47826087,19.9972174 5.47826087,19.5652174 C5.47826087,19.1332174 5.82808696,18.7826087 6.26086957,18.7826087 L14.0869565,18.7826087 C14.5197391,18.7826087 14.8695652,19.1332174 14.8695652,19.5652174 C14.8695652,19.9972174 14.5197391,20.3478261 14.0869565,20.3478261 Z" id="Path"></path>
                    <path d="M32.8695652,9.45021839e-13 L3.13043478,9.45021839e-13 C1.404,9.45021839e-13 0,1.404 0,3.13043478 L0,23.4782609 C0,25.2046957 1.404,26.6086957 3.13043478,26.6086957 L15.6521739,26.6086957 L15.6521739,25.0434783 L3.13043478,25.0434783 C2.26721739,25.0434783 1.56521739,24.3414783 1.56521739,23.4782609 L1.56521739,13.3043478 L34.4347826,13.3043478 L34.4347826,17.2173913 L36,17.2173913 L36,3.13043478 C36,1.404 34.596,9.45021839e-13 32.8695652,9.45021839e-13 Z M34.4347826,7.04347826 L1.56521739,7.04347826 L1.56521739,3.13043478 C1.56521739,2.26721739 2.26721739,1.56521739 3.13043478,1.56521739 L32.8695652,1.56521739 C33.7327826,1.56521739 34.4347826,2.26721739 34.4347826,3.13043478 L34.4347826,7.04347826 Z" id="Shape" fill-rule="nonzero"></path>
                </g>
            </g>
        </g>
    </g>
</svg>