<svg xmlns="http://www.w3.org/2000/svg" width="83" height="83" viewBox="0 0 83 83">
    <defs>
        <filter id="pndgxomkwa">
            <feColorMatrix in="SourceGraphic" values="0 0 0 0 0.992157 0 0 0 0 0.713725 0 0 0 0 0.000000 0 0 0 1.000000 0"/>
        </filter>
        <filter id="b4q4evhpsb">
            <feColorMatrix in="SourceGraphic" values="0 0 0 0 1.000000 0 0 0 0 0.858824 0 0 0 0 0.498039 0 0 0 1.000000 0"/>
        </filter>
    </defs>
    <g fill="none" fill-rule="evenodd">
        <g>
            <g transform="translate(-757 -3335) translate(757 3335)">
                <rect width="82" height="82" x=".5" y=".5" fill="#FFF" stroke="#FFEDDA" rx="10"/>
                <g>
                    <g fill="#000" fill-rule="nonzero" filter="url(#pndgxomkwa)" transform="translate(19 19)">
                        <path d="M40 27.5v5c0 .3.2.5.5.5s.5-.2.5-.5v-5c0-.3-.2-.5-.5-.5s-.5.2-.5.5zM2.5 10h5c.3 0 .5-.2.5-.5S7.8 9 7.5 9h-5c-.3 0-.5.2-.5.5s.2.5.5.5zM29.5 36.5c-.3 0-.5.2-.5.5v5c0 .3.2.5.5.5s.5-.2.5-.5v-5c0-.3-.2-.5-.5-.5zM36.5 35.5c-.3 0-.5.2-.5.5v3c0 .3.2.5.5.5s.5-.2.5-.5v-3c0-.3-.2-.5-.5-.5zM3.5 16c-.3 0-.5.2-.5.5s.2.5.5.5h3c.3 0 .5-.2.5-.5s-.2-.5-.5-.5h-3zM11.5 23c.3 0 .5-.2.5-.5s-.2-.5-.5-.5h-2c-.3 0-.5.2-.5.5s.2.5.5.5h2zM21.5 32.5c-.3 0-.5.2-.5.5v5c0 .3.2.5.5.5s.5-.2.5-.5v-5c0-.3-.2-.5-.5-.5zM8.5 26c.3 0 .5-.2.5-.5s-.2-.5-.5-.5h-5c-.3 0-.5.2-.5.5s.2.5.5.5h5z"/>
                        <path d="M41 41.1v-4.3c0-.7-.3-1.3-.7-1.8l-2.8-2.8c-.3-.3-.4-.7-.4-1.1V27c4.2-2.4 7-6.9 7-12.1 0-7.7-6.3-14-14-14-3.3 0-6.3 1.1-8.6 3H17c-.3 0-.5.2-.5.5s.2.6.5.6h3.2c-.9.9-1.7 1.9-2.3 3h-3.6c-.4 0-.8-.2-1.1-.4l-1.8-1.8C11 5.3 10.3 5 9.7 5h-.8c-.2-.6-.7-1-1.4-1C6.7 4 6 4.7 6 5.5S6.7 7 7.5 7c.7 0 1.2-.4 1.4-1h.8c.4 0 .8.2 1.1.4l1.8 1.8c.4.5 1.1.8 1.7.8h3c-.5.9-.8 1.9-1 3H9.9c-.2-.6-.8-1-1.4-1-.8 0-1.5.7-1.5 1.5S7.7 14 8.5 14c.7 0 1.2-.4 1.4-1h6.3c-.1.7-.2 1.3-.2 2h-3.2c-.7 0-1.3.3-1.8.7l-4.8 4.8c-.3.3-.6.5-1 .5H2.9c-.2-.6-.8-1-1.4-1-.8 0-1.5.7-1.5 1.5S.7 23 1.5 23c.7 0 1.2-.4 1.4-1h2.3c.7 0 1.3-.3 1.8-.7l4.8-4.8c.3-.3.7-.4 1.1-.4h3.2c.1.7.2 1.5.3 2.2L15 19.6c-.6.6-1 1.5-1 2.4 0 .7.2 1.4.6 2L.3 38.3c-.2.2-.3.4-.3.7v5c0 .6.4 1 1 1h5c.3 0 .5-.1.7-.3l2-2c.1-.1.2-.2.2-.4l.8-2.3H11c.4 0 .8-.3.9-.7l.8-2.3H14c.4 0 .8-.3.9-.7l.8-2.3H17c.3 0 .5-.1.7-.3l3.3-3.3c.6.4 1.2.6 2 .6.9 0 1.8-.4 2.4-1l1.4-1.4c.7.2 1.5.3 2.2.3v2.2c0 .4-.2.8-.4 1.1L24.8 36c-.5.5-.7 1.1-.7 1.8v2.3c-.6.2-1 .8-1 1.4 0 .8.7 1.5 1.5 1.5s1.5-.7 1.5-1.5c0-.7-.4-1.2-1-1.4v-2.3c0-.4.2-.8.4-1.1l3.8-3.8c.5-.5.7-1.1.7-1.8V29c1 0 2-.1 3-.3v10.4c-.6.2-1 .8-1 1.4 0 .8.7 1.5 1.5 1.5s1.5-.7 1.5-1.5c0-.7-.4-1.2-1-1.4V28.4c.7-.2 1.4-.5 2-.8v3.5c0 .7.3 1.3.7 1.8l2.8 2.8c.3.3.4.7.4 1.1v4.3c-.6.2-1 .8-1 1.4 0 .8.7 1.5 1.5 1.5s1.5-.7 1.5-1.5c.1-.7-.3-1.2-.9-1.4zM7.5 6c-.3 0-.5-.2-.5-.5s.2-.5.5-.5.5.2.5.5-.2.5-.5.5zm1 7c-.3 0-.5-.2-.5-.5s.2-.5.5-.5.5.2.5.5-.2.5-.5.5zm-7 9c-.3 0-.5-.2-.5-.5s.2-.5.5-.5.5.2.5.5-.2.5-.5.5zm23 20c-.3 0-.5-.2-.5-.5s.2-.5.5-.5.5.2.5.5-.2.5-.5.5zm-7.9-10H15c-.4 0-.8.3-.9.7l-.8 2.3H12c-.4 0-.8.3-.9.7l-.8 2.3H9c-.4 0-.8.3-.9.7l-.9 2.8L5.6 43H2v-3.6l14-14 .9.9L5.1 38.1c-.2.2-.2.5 0 .7.1.2.3.2.4.2.1 0 .3 0 .4-.1l11.8-11.8 1.9 1.9-3 3zm7.4-3.4c-.3.3-.6.4-1 .4s-.7-.1-1-.4L16.4 23c-.3-.3-.4-.6-.4-1s.1-.7.4-1l.7-.7c1.4 3.4 4.2 6.2 7.6 7.6l-.7.7zM33.5 41c-.3 0-.5-.2-.5-.5s.2-.5.5-.5.5.2.5.5-.2.5-.5.5zM30 27c-6.6 0-12-5.4-12-12S23.4 3 30 3s12 5.4 12 12-5.4 12-12 12zm10.5 16c-.3 0-.5-.2-.5-.5s.2-.5.5-.5.5.2.5.5-.2.5-.5.5z"/>
                        <path d="M30 5c-5.5 0-10 4.5-10 10s4.5 10 10 10 10-4.5 10-10S35.5 5 30 5zm0 19c-5 0-9-4-9-9s4-9 9-9 9 4 9 9-4 9-9 9z"/>
                    </g>
                    <g filter="url(#b4q4evhpsb)" transform="translate(19 19)">
                        <g fill="#2B3036" fill-rule="nonzero">
                            <path d="M11.159 5.287c.123-.224.251-.606.251-.918 0-.56-.21-1.053-.675-1.462-.251-.219-.54-.386-.852-.492V.387L8.78 0v2.271H7.31c.225.109.435.248.625.414.246.21.445.473.584.772.084.185.14.382.168.584h.287c.271 0 .516.207.516.478 0 .304-.272.489-.557.52-.134.01-.25.018-.354.027-.012.034-.024.068-.037.1.108.074.209.156.302.248.16.159.3.34.412.538.085.15.156.31.211.475.084.002.169.004.258.009.206.01.402.092.558.234.153.144.229.31.229.516 0 .422-.36.722-.776.722h-.195c-.031.141-.074.279-.128.412-.136.326-.333.62-.58.865-.208.206-.448.374-.71.497h.657v1.931L9.885 12V9.68c.693-.03 1.296-.267 1.733-.704.458-.46.692-1.031.692-1.686-.001-.842-.455-1.661-1.151-2.003z" transform="translate(23 9)"/>
                            <path d="M8.154 5.287c.125-.224.253-.606.253-.918 0-.56-.21-1.053-.679-1.462-.404-.35-.887-.557-1.431-.618V.387L5.187 0v2.271L2.504 2.27c-.105 0-.19.089-.19.198 0 .11.085.198.19.198h3.818l-.275.395H3.812v.962h-.67c-.106 0-.19.089-.19.198 0 .109.084.197.19.198h1.82l-.277.395h-.873v.962H1.298c-.104 0-.189.089-.189.198 0 .109.084.197.19.198H4.96l-.276.396h-.873v.961H2.505c-.105 0-.19.089-.19.198 0 .11.085.198.19.198h2.227l-.276.395h-.644v.962H.5c-.105 0-.19.088-.19.197 0 .11.085.198.19.198l4.686.006v1.931l1.11.387V9.683h.427c.76 0 1.421-.24 1.892-.707.46-.46.695-1.031.695-1.686 0-.842-.455-1.661-1.156-2.003zM5.552 4.041h.407c.272 0 .518.207.518.479 0 .304-.273.488-.56.519l-.365.027V4.041zm1.171 3.867H5.552V6.432c.402-.002.746-.015 1.16.005.207.01.405.092.56.233.155.144.231.31.231.517.001.42-.362.721-.78.721z" transform="translate(23 9)"/>
                        </g>
                    </g>
                </g>
            </g>
        </g>
    </g>
</svg>
