<?xml version="1.0" encoding="UTF-8"?>
<svg width="241px" height="77px" viewBox="0 0 241 77" version="1.1" xmlns="http://www.w3.org/2000/svg" xmlns:xlink="http://www.w3.org/1999/xlink">
    <title>BruteBrothers Final-06</title>
    <g id="Designs" stroke="none" stroke-width="1" fill="none" fill-rule="evenodd">
        <g id="Brute-Brothers-Home" transform="translate(-245.000000, -56.000000)" fill="#FFB800" fill-rule="nonzero">
            <g id="BruteBrothers-Final-06" transform="translate(245.435535, 56.000000)">
                <path d="M71.974961,33.9270362 C72.7938237,32.4880769 73.6367202,30.0334842 73.6367202,28.0335747 C73.6367202,24.4448869 72.2513486,21.2777828 69.1733174,18.6559502 C67.5145274,17.2497726 65.6054335,16.1793933 63.5494298,15.5027828 L63.5494298,2.48072398 L56.2603497,0 L56.2603497,14.5759955 L46.5644654,14.5759955 C48.04562,15.2749108 49.4306496,16.1668257 50.6845295,17.2291855 L50.6845295,17.2291855 L50.6845295,17.2291855 C52.310762,18.5765573 53.6282518,20.267244 54.545373,22.1836652 C55.0943341,23.369692 55.4663514,24.6320031 55.6492068,25.9291403 L57.5478697,25.9291403 C59.3366642,25.9291403 60.950356,27.2583484 60.950356,28.9986878 C60.950356,30.9480769 59.1581281,32.1344344 57.2783489,32.3365158 C56.3908184,32.4061991 55.6268898,32.4602036 54.9384958,32.510724 C54.8595279,32.7319683 54.7788433,32.9479864 54.6947253,33.1587783 C55.4039026,33.6270078 56.0703505,34.1587227 56.6860896,34.7475566 C57.746474,35.7641763 58.6606968,36.9270807 59.4018986,38.2021041 C59.9651037,39.16849 60.4326093,40.1891046 60.7975703,41.2490045 C61.3486289,41.259457 61.9117043,41.2768778 62.4988135,41.3047511 C63.8593503,41.3655566 65.1595823,41.8917446 66.1879876,42.7977149 C67.19912,43.7245023 67.6986777,44.7871719 67.6986777,46.1076697 C67.6986777,48.8131222 65.3193407,50.7398643 62.5777814,50.7398643 L61.291978,50.7398643 C61.0848503,51.6441367 60.800522,52.528389 60.4422148,53.3826018 C59.5441753,55.473989 58.2418353,57.3613122 56.6122718,58.9328733 L56.6122718,58.9328733 L56.6122718,58.9328733 C55.2371303,60.2605895 53.6509223,61.343124 51.9205488,62.134819 L56.2569163,62.134819 L56.2569163,74.519276 L63.5494298,77 L63.5494298,62.113914 C68.1295678,61.9257692 72.1088631,60.401448 74.998058,57.5984389 C78.0211551,54.6369005 79.5644654,50.9785294 79.5644654,46.7801131 C79.5678958,41.3779186 76.5756993,36.1185747 71.974961,33.9270362 Z" id="Path"></path>
                <path d="M51.9857764,33.9285714 C52.8031028,32.489547 53.6444178,30.0348432 53.6444178,28.0348432 C53.6444178,24.445993 52.2616454,21.2787456 49.1893892,18.6567944 C46.5369337,16.4094077 43.3755768,15.0801394 39.8047001,14.695122 L39.8047001,2.48083624 L32.5292957,0 L32.5292957,14.5766551 L14.9542078,14.5627178 C14.2652834,14.5627178 13.7067998,15.1305517 13.7067998,15.8310105 L13.7067998,15.8310105 C13.7063449,16.1676843 13.8375671,16.4907273 14.0715508,16.7289552 C14.3055345,16.9671832 14.6230775,17.1010456 14.9542078,17.1010453 L39.9846147,17.1010453 L38.1769012,19.6393728 L23.5215705,19.6393728 L23.5215705,25.8101045 L19.1265134,25.8101045 C18.7953835,25.8096421 18.47766,25.9430612 18.2433549,26.1809623 C18.0090498,26.4188635 17.8773916,26.741723 17.877392,27.0783972 L17.877392,27.0783972 C17.8773916,27.4150714 18.0090498,27.7379309 18.2433549,27.9758321 C18.47766,28.2137332 18.7953835,28.3471524 19.1265134,28.3466899 L31.0539958,28.3466899 L29.2462823,30.8867596 L23.5215705,30.8867596 L23.5215705,37.0574913 L7.04310509,37.0574913 C6.71197513,37.0570288 6.39425165,37.1904479 6.15994655,37.4283491 C5.92564144,37.6662503 5.79398329,37.9891098 5.7939836,38.325784 L5.7939836,38.325784 C5.79307196,38.6630615 5.92432777,38.9868174 6.15873189,39.225473 C6.393136,39.4641285 6.71138048,39.5980255 7.04310509,39.597561 L31.0539958,39.597561 L29.2462823,42.1358885 L23.5215705,42.1358885 L23.5215705,48.3066202 L14.9542078,48.3066202 C14.6230775,48.3066199 14.3055345,48.4404823 14.0715508,48.6787103 C13.8375671,48.9169382 13.7063449,49.2399812 13.7067998,49.5766551 L13.7067998,49.5766551 C13.7063449,49.9133289 13.8375671,50.2363719 14.0715508,50.4745998 C14.3055345,50.7128278 14.6230775,50.8466902 14.9542078,50.8466899 L29.5495669,50.8466899 L27.7418534,53.3850174 L23.5215705,53.3850174 L23.5215705,59.5557491 L1.81187342,59.5557491 C1.122949,59.5557491 0.564465409,60.1235831 0.564465409,60.8240418 L0.564465409,60.8240418 C0.564465409,61.5241042 1.12162788,62.092156 1.81015995,62.0940767 L32.5292957,62.1341463 L32.5292957,74.5191638 L39.808127,77 L39.808127,62.1376307 L42.6062277,62.1376307 C47.5872923,62.1376307 51.9189509,60.6010453 55.004915,57.6080139 C58.0223401,54.6463415 59.5644654,50.9878049 59.5644654,46.7891986 C59.5644654,41.3797909 56.5778828,36.1202091 51.9857764,33.9285714 Z M34.9264437,25.9337979 L37.596034,25.9337979 C39.3814723,25.9337979 40.9921365,27.2630662 40.9921365,29.0034843 C40.9921365,30.9529617 39.2032712,32.1393728 37.3253053,32.3414634 C36.4137379,32.412892 35.6289675,32.4686411 34.9264437,32.5156794 L34.9264437,25.9337979 Z M42.6062277,50.7473868 L34.9264437,50.7473868 L34.9264437,41.2735192 C37.5617645,41.2595819 39.8166944,41.174216 42.5359753,41.304878 C43.8907115,41.3679595 45.1847155,41.8947182 46.207947,42.7996516 C47.2188958,43.7264808 47.7175163,44.7891986 47.7175163,46.1097561 C47.7175163,48.8188153 45.3409298,50.7473868 42.6062277,50.7473868 Z" id="Shape"></path>
                <path d="M97.3787388,18.8853717 C98.0702118,19.2104534 98.7148885,19.6209988 99.2965212,20.1066611 C102.320447,23.0604614 102.320447,27.8113864 99.2965212,30.7651867 C97.8710435,32.2192319 95.8787984,33.0296434 93.8046898,32.9991706 L84.5644654,32.9991706 L84.5644654,9.00066588 L91.5068377,9.00066588 C93.368447,8.97490301 95.1572225,9.69771043 96.4442557,10.995775 C97.7210553,12.1979129 98.432302,13.8518927 98.4125979,15.5730869 C98.4125979,16.7169943 97.8390066,18.0964121 97.3787388,18.8853717 Z M91.499864,13.6906863 L89.540239,13.6906863 L89.540239,18.0812721 C89.9830724,18.0627677 90.60548,18.0223945 91.4074617,17.9635169 C92.5912565,17.8339862 93.5989676,16.9794201 93.5989676,15.7598129 C93.6010886,14.6331982 92.6672592,13.712703 91.499864,13.6906863 L91.499864,13.6906863 Z M96.6848503,25.4359239 C96.6626126,23.8794293 95.4087221,22.5986596 93.7994594,22.4886801 C92.3192801,22.4096159 91.0378528,22.4735401 89.540239,22.4735401 L89.540239,28.2940102 L93.7994594,28.2940102 C94.5757959,28.2869432 95.317096,27.9811752 95.8588247,27.4445728 C96.4005535,26.9079705 96.697894,26.1849265 96.6848503,25.4359239 L96.6848503,25.4359239 Z" id="Shape"></path>
                <path d="M103.564465,9 L111.558932,9 C114.286152,9 116.491285,10.009393 117.971678,11.4410486 C119.464093,12.9029861 120.343399,14.2353848 120.343399,16.8900883 L120.343399,17.515912 C120.343399,19.1343053 119.828181,20.6579279 118.797745,22.0867798 C117.939048,23.2644049 117.252091,23.7691014 115.864437,24.305762 L121.564465,33 L115.539849,33 L108.498537,22.3845507 L108.498537,33 L103.578205,33 L103.564465,9 Z M115.266806,17.0398149 C115.269977,16.1742341 114.920029,15.3432734 114.294739,14.7316697 C113.655869,14.1226693 112.441672,13.7794757 111.254953,13.7794757 L108.488232,13.7794757 L108.488232,20.4044582 L110.387669,20.4044582 L110.387669,20.419599 L112.029497,20.419599 C113.824173,20.419599 115.266806,18.8684985 115.266806,17.0398149 L115.266806,17.0398149 Z" id="Shape"></path>
                <path d="M138.56533,23.2976309 L138.56533,9 L143.563595,9 L143.563595,23.312545 C143.61104,26.7582692 141.715661,29.9618409 138.602419,31.6979318 C135.489176,33.4340227 131.639755,33.4340227 128.526512,31.6979318 C125.413269,29.9618409 123.517891,26.7582692 123.565336,23.312545 L123.565336,9 L128.565334,9 L128.565334,23.2976309 C128.565334,25.8761095 130.847829,28.0502509 133.565332,28.0502509 C136.255106,28.0502509 138.56533,25.8595383 138.56533,23.2976309 Z" id="Path"></path>
                <polygon id="Path" points="162.564465 9 162.564465 13.7794757 156.55072 13.7794757 156.55072 33 151.602266 33 151.602266 13.7794757 145.564465 13.7794757 145.564465 9"></polygon>
                <polygon id="Path" points="180.564465 9 180.564465 13.7906132 170.561558 13.7906132 170.561558 18.6113982 178.061558 18.6113982 178.061558 23.4036877 170.561558 23.4036877 170.561558 28.2244727 180.564465 28.2244727 180.564465 33 165.564465 33 165.564465 9"></polygon>
                <path d="M97.3800262,49.8860175 C98.0716424,50.210518 98.7161989,50.62114 99.2972188,51.1073867 C102.320214,54.0613799 102.320214,58.8126153 99.2972188,61.7666085 C97.8707634,63.2216084 95.8769052,64.0315962 93.8018477,63.999056 L84.5644654,63.999056 L84.5644654,40.0006659 L91.5047025,40.0006659 C93.3657391,39.9749014 95.1539645,40.697756 96.4406019,41.9959054 C97.7175432,43.1948451 98.4309966,44.8456767 98.4153102,46.5651046 C98.4135673,47.7174984 97.8401524,49.0970063 97.3800262,49.8860175 Z M91.5029596,44.6893104 L89.5439374,44.6893104 L89.5439374,49.0818653 C89.9866345,49.0616774 90.6088507,49.0229839 91.4105857,48.9624201 C92.5940164,48.8345633 93.6014176,47.9799414 93.6014176,46.7585722 C93.603538,45.6318838 92.6699957,44.7113285 91.5029596,44.6893104 Z M96.6863511,56.4369976 C96.6641902,54.8800754 95.4108913,53.5987015 93.8018477,53.4878789 C92.3221237,53.4104919 91.0410905,53.4744203 89.5439374,53.4744203 L89.5439374,59.2885413 L93.8018477,59.2885413 C94.5767181,59.281457 95.3167156,58.9765942 95.8580751,58.4414205 C96.3994346,57.9062468 96.6975155,57.1848927 96.6863511,56.4369976 L96.6863511,56.4369976 Z" id="Shape"></path>
                <path d="M103.564465,40 L111.561221,40 C114.289222,40 116.494987,41.0094637 117.975803,42.4412198 C119.468646,43.9032597 120.348203,45.2357518 120.348203,47.8906414 L120.348203,48.5215563 C120.348203,50.1378198 119.832837,51.6615492 118.802106,53.0927445 C117.943164,54.2704522 117.25601,54.775184 115.867958,55.3101998 L121.564465,64 L115.543278,64 L108.499949,53.385489 L108.499949,64 L103.578208,64 L103.564465,40 Z M115.270162,48.0403785 C115.273711,47.1746635 114.923604,46.3435059 114.297811,45.7320715 C113.658758,45.1230284 112.444213,44.7781283 111.257155,44.7781283 L108.489642,44.7781283 L108.489642,51.4052576 L110.389623,51.4052576 L110.389623,51.4203996 L112.031921,51.4203996 C113.827111,51.4203996 115.270162,49.8675079 115.270162,48.0403785 L115.270162,48.0403785 Z" id="Shape"></path>
                <path d="M144.030815,43.5325321 C146.386582,45.8886587 147.564465,48.7194364 147.564465,52.0248653 C147.564465,55.3302942 146.386582,58.157204 144.030815,60.5055947 C141.684987,62.8351982 138.860386,64 135.55701,64 C132.253635,64 129.429034,62.8363034 127.083206,60.5089101 C124.737379,58.1616245 123.564465,55.3347147 123.564465,52.0281807 C123.564465,48.7216466 124.737379,45.8908689 127.083206,43.5358475 C129.437869,41.1786158 132.262471,40 135.55701,40 C138.85155,40 141.676152,41.1775107 144.030815,43.5325321 Z M130.469415,46.9059262 C127.696713,49.7196676 127.710962,54.2444452 130.501331,57.0406455 C133.291699,59.8368459 137.81364,59.8577392 140.629696,57.087443 C142.470909,55.2761491 143.200112,52.6160445 142.54013,50.1182557 C141.880147,47.620467 139.932333,45.6685818 137.437066,45.0045268 C134.9418,44.3404719 132.282281,45.0662267 130.469415,46.9059262 L130.469415,46.9059262 Z" id="Shape"></path>
                <polygon id="Path" points="164.564465 40 164.564465 44.7781283 158.55072 44.7781283 158.55072 64 153.600548 64 153.600548 44.7781283 147.564465 44.7781283 147.564465 40"></polygon>
                <polygon id="Path" points="170.473088 40 170.473088 49.6033649 178.65756 49.6033649 178.65756 40 183.564465 40 183.564465 64 178.65756 64 178.65756 54.3814932 170.467937 54.3814932 170.467937 64 165.564465 64 165.564465 40"></polygon>
                <polygon id="Path" points="200.564465 40 200.564465 44.7919547 190.561558 44.7919547 190.561558 49.6124031 198.061558 49.6124031 198.061558 54.4026818 190.561558 54.4026818 190.561558 59.2248062 200.564465 59.2248062 200.564465 64 185.564465 64 185.564465 40"></polygon>
                <path d="M204.564465,40 L212.562175,40 C215.289916,40 217.49547,41.0094637 218.976146,42.4412198 C220.467128,43.9032597 221.346601,45.2357518 221.346601,47.8906414 L221.346601,48.5215563 C221.338671,50.1672131 220.797334,51.7678821 219.800652,53.0927445 C218.941791,54.2704522 218.254703,54.775184 216.866784,55.3101998 L222.564465,64 L216.552441,64 L209.509785,53.385489 L209.509785,64 L204.58336,64 L204.564465,40 Z M216.270764,48.0403785 C216.274433,47.1743098 215.923638,46.3429088 215.296787,45.7320715 C214.657795,45.1230284 213.445084,44.7781283 212.256421,44.7781283 L209.49089,44.7781283 L209.49089,51.4052576 L211.390689,51.4052576 L211.390689,51.4203996 L213.032831,51.4203996 C214.826132,51.4203996 216.270764,49.8675079 216.270764,48.0403785 L216.270764,48.0403785 Z" id="Shape"></path>
                <path d="M230.494916,59.1748458 C231.889435,59.1748458 233.428337,58.0860422 233.428337,56.7771612 C233.428337,54.6260294 230.350533,54.3215615 228.614427,53.7556484 C225.550709,52.7744013 222.846187,50.4114657 222.846187,47.196351 C222.849103,43.4143057 225.964686,40.2788048 229.97948,40.017456 C233.994274,39.7561072 237.540112,42.4579732 238.097865,46.203521 L233.084989,47.196351 C233.080613,45.8739742 231.93637,44.8053097 230.52925,44.8094222 C229.122131,44.8135346 227.984982,45.8888666 227.989358,47.2112435 C227.989358,49.3375546 230.85411,49.9034677 232.59726,50.3899544 C235.766622,51.2487524 238.564465,53.5190239 238.564465,56.8052914 C238.564465,60.78654 234.76123,64 230.533652,64 C226.647661,64 223.138472,61.3226682 222.564465,57.8080498 L227.577341,56.8052914 C227.577341,58.1290648 229.102157,59.1963572 230.517805,59.1963572 L230.494916,59.1748458 Z" id="Path"></path>
                <polygon id="Path" points="88.5644654 69.6830942 86.9102821 69.6830942 86.9102821 75 86.2218359 75 86.2218359 69.6830942 84.5644654 69.6830942 84.5644654 69 88.5644654 69"></polygon>
                <polygon id="Path" points="96.5644654 69 96.5644654 75 95.897542 75 95.897542 72.2694947 93.232929 72.2694947 93.232929 75 92.5644654 75 92.5644654 69 93.232929 69 93.232929 71.6762321 95.897542 71.6762321 95.897542 69"></polygon>
                <polygon id="Path" points="105.564465 74.3374922 105.564465 75 101.564465 75 101.564465 69 105.560421 69 105.560421 69.6606363 102.44212 69.6606363 102.44212 71.6537742 104.965881 71.6537742 104.965881 72.2900811 102.44212 72.2900811 102.44212 74.3374922"></polygon>
                <path d="M118.213474,73.7200509 C118.249747,73.7195613 118.284285,73.7390638 118.30757,73.7731841 L118.564465,74.1139694 C118.36817,74.3922708 118.124455,74.6143064 117.850535,74.7643929 C117.530008,74.9304607 117.184212,75.0104256 116.836395,74.9989118 C116.515799,75.0042511 116.197675,74.9294439 115.901415,74.7790503 C115.628283,74.6404125 115.383107,74.4303199 115.183003,74.1634382 C114.981901,73.8905686 114.827502,73.5709514 114.728955,73.2235304 C114.616685,72.8322593 114.561082,72.4199102 114.564662,72.0051315 C114.560643,71.5902824 114.618343,71.1780131 114.73493,70.7885647 C114.84129,70.4350349 115.004886,70.1115731 115.215862,69.8376639 C115.423929,69.570021 115.675917,69.3595732 115.955184,69.2202196 C116.257747,69.0699645 116.581697,68.9952203 116.908087,69.0003581 C117.214713,68.9943978 117.519273,69.062892 117.804234,69.2018978 C118.058883,69.3326972 118.29215,69.5189116 118.492774,69.7515515 L118.277698,70.1179872 C118.265751,70.1455179 118.248272,70.1688514 118.226917,70.1857778 C118.201434,70.2052227 118.171767,70.2147997 118.141783,70.2132605 C118.086416,70.2059018 118.034253,70.1777469 117.992425,70.1326447 C117.920016,70.0656897 117.844186,70.0044919 117.765401,69.9494268 C117.654312,69.8725576 117.536589,69.8111061 117.41441,69.7662089 C117.019449,69.6369269 116.601301,69.6638565 116.219547,69.8431604 C116.018129,69.9465957 115.837649,70.1029485 115.69082,70.3012051 C115.535474,70.513677 115.417515,70.7631626 115.34431,71.0340767 C115.258535,71.3468376 115.216619,71.6751773 115.220343,72.0051315 C115.216217,72.33856 115.259689,72.6703021 115.348791,72.9853472 C115.425813,73.2553189 115.545037,73.5042607 115.699782,73.7182187 C115.84638,73.908984 116.024644,74.0589345 116.222534,74.1579417 C116.429281,74.2634392 116.651319,74.3164183 116.875228,74.3136769 C117.004137,74.3154313 117.132965,74.3050183 117.260571,74.2825298 C117.36906,74.2646385 117.475699,74.2327026 117.578704,74.1872565 C117.673764,74.1446775 117.764482,74.0887282 117.849041,74.0205282 C117.937755,73.9496401 118.021218,73.8693261 118.098469,73.7805128 C118.129407,73.743637 118.17037,73.7221014 118.213474,73.7200509 L118.213474,73.7200509 Z" id="Path"></path>
                <path d="M125.564465,74.9925241 L124.915224,74.9925241 C124.795742,75.0000601 124.682252,74.9339359 124.620115,74.8205795 L123.217079,72.6880915 C123.182704,72.6285983 123.135836,72.57922 123.080486,72.5441813 C123.008226,72.5096663 122.929698,72.4943076 122.851143,72.4993261 L122.291278,72.4993261 L122.291278,75 L121.564465,75 L121.564465,69.0006254 L123.09229,69.0006254 C123.390674,68.99454 123.688443,69.0328849 123.977619,69.1146323 C124.201348,69.1786865 124.411218,69.2918079 124.59482,69.4473079 C124.752899,69.5861084 124.876988,69.7666934 124.955696,69.9724867 C125.10085,70.3829532 125.110407,70.8370757 124.982678,71.2545961 C124.923128,71.4361672 124.833955,71.6040516 124.719609,71.7498715 C124.600342,71.8998557 124.45892,72.0262569 124.301396,72.1236644 C124.125156,72.2310862 123.936103,72.3103665 123.739845,72.3591538 C123.837838,72.4213289 123.921075,72.508455 123.982678,72.6133329 L125.564465,74.9925241 Z M123.066995,71.9031266 C123.256461,71.9059262 123.445218,71.8769408 123.62686,71.8171542 C123.776192,71.767252 123.914966,71.6846311 124.034954,71.5741889 C124.141462,71.471819 124.22564,71.3440178 124.28116,71.2003961 C124.337792,71.0474956 124.365901,70.8834685 124.363791,70.7182034 C124.382767,70.4085002 124.264481,70.107955 124.046759,69.9126799 C123.765743,69.709067 123.432231,69.6132127 123.097349,69.6398111 L122.291278,69.6398111 L122.291278,71.9031266 L123.066995,71.9031266 Z" id="Shape"></path>
                <path d="M130.033384,72.6102832 L130.033384,75 L129.097703,75 L129.097703,72.6102832 L126.564465,69.0004448 L127.385881,69.0004448 C127.456416,68.9968215 127.526085,69.0154285 127.582072,69.0528427 C127.633764,69.090743 127.676268,69.1371776 127.707117,69.1894514 L129.289582,71.5211562 C129.347793,71.6184665 129.401691,71.7082914 129.449122,71.7943737 C129.49627,71.8783838 129.538016,71.9645983 129.574167,72.0526203 C129.610818,71.9665381 129.649625,71.8804559 129.6949,71.7943737 C129.740175,71.7082914 129.789762,71.6184665 129.845816,71.5211562 L131.421814,69.1894514 C131.452516,69.13976 131.493434,69.0953641 131.542547,69.0584567 C131.597879,69.0181169 131.668719,68.9973981 131.740894,69.0004448 L132.564465,69.0004448 L130.033384,72.6102832 Z" id="Path"></path>
                <path d="M138.331783,69.0006202 C138.665917,68.9941518 138.999107,69.0383144 139.320062,69.131611 C139.575995,69.2059829 139.813425,69.3335025 140.016901,69.5058705 C140.198412,69.6656297 140.339305,69.8664137 140.427905,70.0915866 C140.521006,70.3358475 140.567275,70.595507 140.564283,70.8569473 C140.567897,71.120102 140.517669,71.3812102 140.416696,71.6241793 C140.321214,71.853667 140.174926,72.0584257 139.988878,72.2229945 C139.784562,72.3990419 139.546932,72.5320551 139.29017,72.6140957 C138.98045,72.7127558 138.656739,72.7601604 138.331783,72.754443 L137.36966,72.754443 L137.36966,75 L136.564465,75 L136.564465,69.0006202 L138.331783,69.0006202 Z M138.331783,72.1107166 C138.539711,72.1145276 138.746815,72.083537 138.944553,72.0190231 C139.109187,71.9638458 139.26104,71.8760198 139.391053,71.760784 C139.511985,71.6523354 139.606015,71.5171439 139.665679,71.3659402 C139.727689,71.2041503 139.758744,71.0321151 139.757221,70.8588186 C139.776033,70.5232431 139.646969,70.1962863 139.404131,69.9643384 C139.168737,69.7491392 138.810043,69.6406039 138.331783,69.6406039 L137.36966,69.6406039 L137.36966,72.1107166 L138.331783,72.1107166 Z" id="Shape"></path>
                <polygon id="Path" points="147.564465 69.6830942 145.910282 69.6830942 145.910282 75 145.221836 75 145.221836 69.6830942 143.564465 69.6830942 143.564465 69 147.564465 69"></polygon>
                <path d="M156.564233,72.0036083 C156.569156,72.4165 156.495848,72.8267829 156.347924,73.2142299 C156.213726,73.56752 156.005768,73.8904334 155.736946,74.162947 C155.469447,74.4310898 155.146099,74.6414521 154.788222,74.7801625 C154.000575,75.0732792 153.128161,75.0732792 152.340514,74.7801625 C151.982772,74.6412065 151.659474,74.4308769 151.39179,74.162947 C151.123563,73.8899894 150.915686,73.5672014 150.780812,73.2142299 C150.49235,72.4311633 150.49235,71.5760533 150.780812,70.7929867 C150.916121,70.4396769 151.123931,70.1163696 151.39179,69.8424382 C151.659803,69.5739843 151.982941,69.3625112 152.340514,69.2215596 C153.127716,68.9261468 154.001019,68.9261468 154.788222,69.2215596 C155.145927,69.3622717 155.469114,69.5737765 155.736946,69.8424382 C156.005475,70.1158707 156.213375,70.4393183 156.347924,70.7929867 C156.495724,71.1804657 156.569028,71.5907265 156.564233,72.0036083 L156.564233,72.0036083 Z M155.719869,72.0036083 C155.724488,71.6742156 155.673211,71.3463146 155.568073,71.0329133 C155.477728,70.7621454 155.329722,70.512605 155.133557,70.3003132 C154.945641,70.1003675 154.713461,69.9438661 154.454271,69.8424382 C153.882238,69.6291171 153.248395,69.6291171 152.676362,69.8424382 C152.417073,69.9446648 152.184446,70.1010311 151.995178,70.3003132 C151.798367,70.5121546 151.650278,70.7618348 151.560663,71.0329133 C151.355717,71.6643002 151.355717,72.3410849 151.560663,72.9724719 C151.650278,73.2435503 151.798367,73.4932306 151.995178,73.7050719 C152.18464,73.9036912 152.417253,74.059422 152.676362,74.1611155 C153.249025,74.3711475 153.881608,74.3711475 154.454271,74.1611155 C154.713372,74.0603859 154.945573,73.9044966 155.133557,73.7050719 C155.32954,73.4926537 155.477523,73.2431523 155.568073,72.9724719 C155.673341,72.6597301 155.724623,72.3324104 155.719869,72.0036083 L155.719869,72.0036083 Z" id="Shape"></path>
                <polygon id="Path" points="169.564465 74.3169058 169.564465 75 165.564465 75 165.564465 69 166.514438 69 166.514438 74.3169058"></polygon>
                <path d="M176.564287,72.0036083 C176.5686,72.4166132 176.494695,72.8268996 176.346216,73.2142299 C176.212102,73.56752 176.004274,73.8904334 175.735619,74.162947 C175.468624,74.4314769 175.145385,74.641899 174.787486,74.7801625 C174.00033,75.0732792 173.128459,75.0732792 172.341303,74.7801625 C171.983677,74.6414029 171.660539,74.4310471 171.393171,74.162947 C171.123835,73.8906006 170.915354,73.5676754 170.780677,73.2142299 C170.492395,72.4311633 170.492395,71.5760533 170.780677,70.7929867 C170.915848,70.4392321 171.124255,70.1157995 171.393171,69.8424382 C171.660872,69.5738182 171.983848,69.3623198 172.341303,69.2215596 C173.128015,68.9261468 174.000774,68.9261468 174.787486,69.2215596 C175.145237,69.3617875 175.46832,69.5733567 175.735619,69.8424382 C176.003981,70.1158707 176.211752,70.4393183 176.346216,70.7929867 C176.49453,71.18036 176.56843,71.5906168 176.564287,72.0036083 Z M175.718553,72.0036083 C175.723169,71.6742156 175.671924,71.3463146 175.566851,71.0329133 C175.476467,70.7625795 175.32928,70.5131757 175.134503,70.3003132 C174.945899,70.101252 174.714086,69.9449002 174.45564,69.8424382 C173.883131,69.6300462 173.249451,69.6300462 172.676943,69.8424382 C172.417815,69.9446648 172.185333,70.1010311 171.996183,70.3003132 C171.799494,70.5121546 171.651498,70.7618348 171.561938,71.0329133 C171.35712,71.6643002 171.35712,72.3410849 171.561938,72.9724719 C171.651498,73.2435503 171.799494,73.4932306 171.996183,73.7050719 C172.185527,73.9036912 172.417994,74.059422 172.676943,74.1611155 C173.249911,74.3711008 173.882671,74.3711008 174.45564,74.1611155 C174.713907,74.0591867 174.945706,73.9034702 175.134503,73.7050719 C175.329058,73.4920564 175.476217,73.2426995 175.566851,72.9724719 C175.672054,72.6597301 175.723304,72.3324104 175.718553,72.0036083 Z" id="Shape"></path>
                <path d="M184.21426,73.7200557 C184.250452,73.7195662 184.284912,73.7390685 184.308145,73.7731887 L184.564465,74.1139727 C184.36891,74.3926714 184.125663,74.6147771 183.852133,74.7643938 C183.532323,74.930461 183.187302,75.0104256 182.840263,74.9989118 C182.520396,75.0040976 182.203009,74.9292965 181.907376,74.7790511 C181.635062,74.6399495 181.390512,74.4299232 181.190573,74.1634414 C180.986183,73.891705 180.828543,73.572011 180.72711,73.2235371 C180.615597,72.8321562 180.560624,72.4198118 180.564674,72.0051428 C180.560664,71.5902953 180.618235,71.1780275 180.734561,70.7885806 C180.839564,70.4348007 181.002361,70.1111924 181.212926,69.8376834 C181.422987,69.5693994 181.67695,69.3589533 181.958044,69.2202414 C182.259976,69.0701756 182.583169,68.9954389 182.908814,69.0003808 C183.214767,68.9942266 183.518676,69.0627274 183.802955,69.2019197 C184.05722,69.332286 184.290026,69.518548 184.489954,69.7515713 L184.27685,70.1180057 C184.263886,70.1451879 184.246047,70.1683736 184.224692,70.185796 C184.199266,70.2052408 184.169666,70.2148178 184.139748,70.2132786 C184.084349,70.2066474 184.032129,70.1783985 183.990725,70.132663 C183.917697,70.0661712 183.841565,70.0049941 183.762719,69.9494458 C183.652412,69.8725509 183.535444,69.811095 183.414004,69.7662286 C183.2458,69.7082146 183.07155,69.6810499 182.896892,69.6856131 C182.665093,69.6823172 182.435086,69.7358839 182.220325,69.8431799 C182.018633,69.9459576 181.837961,70.1023852 181.691292,70.3012229 C181.537342,70.5146275 181.419778,70.7638336 181.345557,71.0340916 C181.260509,71.3469672 181.219191,71.675297 181.223358,72.0051428 C181.218493,72.3386359 181.261888,72.6705368 181.351518,72.9853548 C181.42711,73.2560391 181.546206,73.5052695 181.701723,73.7182236 C181.84684,73.9146 182.025454,74.0691318 182.224796,74.17077 C182.431128,74.2760726 182.652636,74.3290436 182.876029,74.3265047 C183.005143,74.3282305 183.134176,74.3178179 183.262,74.2953577 C183.369762,74.2774752 183.475668,74.2455375 183.57793,74.2000848 C183.672914,74.1578957 183.763465,74.1019242 183.847662,74.0333572 C183.936177,73.9624693 184.019454,73.8821556 184.096532,73.7933426 C184.126645,73.7512042 184.16881,73.7249562 184.21426,73.7200557 L184.21426,73.7200557 Z" id="Path"></path>
                <path d="M190.242564,71.6312199 L190.496656,71.6312199 C190.568764,71.6344696 190.640725,71.621122 190.708659,71.5918966 C190.766352,71.5619738 190.816772,71.514938 190.85519,71.4552012 L192.520038,69.1931741 C192.557444,69.1285721 192.607853,69.0763935 192.66657,69.0414985 C192.725731,69.0117649 192.789537,68.9977133 192.853631,69.0003026 L193.425728,69.0003026 L191.522377,71.5844064 C191.481642,71.6443576 191.436798,71.7001045 191.388316,71.7510624 C191.345996,71.7935161 191.299381,71.8293782 191.249578,71.8577971 C191.311867,71.8817544 191.369981,71.9191973 191.421052,71.9682769 C191.479781,72.0219984 191.532214,72.0849833 191.576936,72.1555308 L193.564465,74.9999175 L192.979898,74.9999175 C192.941752,75.0006181 192.903641,74.9968553 192.866102,74.9886823 C192.836992,74.9840465 192.808923,74.972595 192.783483,74.9549766 C192.760771,74.9412066 192.740205,74.9228364 192.722688,74.9006729 C192.704107,74.8783539 192.687399,74.8538931 192.672805,74.8276439 L190.948721,72.4439018 C190.907506,72.380147 190.854009,72.3293799 190.792836,72.2959712 C190.71523,72.2609781 190.63243,72.2456762 190.549656,72.2510303 L190.237887,72.2510303 L190.237887,74.9999175 L189.564465,74.9999175 L189.564465,69.0003026 L190.237887,69.0003026 L190.242564,71.6312199 Z" id="Path"></path>
                <path d="M200.225034,69.9730909 C200.202911,70.0087425 200.174229,70.0403289 200.140352,70.0663456 C200.107731,70.086394 200.069487,70.0965932 200.03065,70.0956019 C199.966572,70.0906574 199.905856,70.0663014 199.857437,70.0261181 C199.792001,69.980405 199.709244,69.9292064 199.61109,69.8725223 C199.496716,69.8114898 199.376933,69.7600947 199.253116,69.7189264 C199.089586,69.6693838 198.918552,69.6459051 198.746949,69.6494426 C198.579479,69.6462558 198.412719,69.6710115 198.254255,69.7225835 C198.122574,69.7639812 198.000885,69.8298693 197.896281,69.9164068 C197.802603,69.9958712 197.728372,70.0938579 197.678802,70.2034847 C197.628854,70.319492 197.603983,70.4438611 197.605668,70.569189 C197.599652,70.7146831 197.644298,70.8580023 197.732691,70.9769494 C197.823733,71.0900527 197.938399,71.1840551 198.069494,71.2530562 C198.219491,71.3346512 198.378201,71.4008507 198.542943,71.4505365 L199.085677,71.6333887 C199.278136,71.6919014 199.451349,71.7595567 199.628411,71.8345261 C199.799932,71.9073286 199.959413,72.0034148 200.10186,72.1197755 C200.243002,72.2363582 200.357048,72.3795843 200.436739,72.5403355 C200.527206,72.733438 200.570626,72.9434519 200.563762,73.1547188 C200.565216,73.4013983 200.518897,73.6462276 200.427116,73.8769848 C200.337661,74.0971828 200.200637,74.2971302 200.024877,74.4639403 C199.838168,74.6353284 199.616892,74.7690551 199.374366,74.8570725 C199.093681,74.9559553 198.796072,75.004321 198.496753,74.9996972 C198.121189,75.0039638 197.748835,74.9335839 197.403586,74.7930742 C197.086792,74.6626337 196.801282,74.4722548 196.564465,74.2335466 L196.805039,73.8586996 C196.827838,73.8281911 196.856585,73.8021208 196.889721,73.7819017 C196.922123,73.7612083 196.960383,73.750367 196.999423,73.7508168 C197.045263,73.7538107 197.089288,73.7690204 197.126445,73.7947014 C197.172636,73.8239577 197.226524,73.8586996 197.288111,73.9025841 C197.349698,73.9464687 197.417058,73.9940102 197.494042,74.0470374 C197.577948,74.1019651 197.666829,74.1496947 197.759635,74.1896621 C198.001434,74.293258 198.264252,74.3450705 198.529471,74.3414294 C198.709279,74.3435385 198.888185,74.3169605 199.058733,74.2628029 C199.201377,74.2152262 199.332339,74.1405709 199.443651,74.0433803 C199.551507,73.9503884 199.63574,73.8353488 199.689998,73.7069323 C199.7493,73.567579 199.778743,73.4183855 199.776605,73.2680871 C199.783642,73.113926 199.739181,72.9615996 199.649582,72.8328989 C199.561551,72.7165969 199.447938,72.6198862 199.316628,72.5494781 C199.166947,72.4677628 199.008151,72.402141 198.843179,72.3538262 L198.300445,72.1910878 C198.107986,72.1344036 197.934773,72.0704054 197.757711,71.9972645 C197.584745,71.9262529 197.424896,71.8293277 197.284262,71.7101866 C197.141072,71.5874642 197.02693,71.4372631 196.949383,71.2695129 C196.779685,70.8675653 196.779685,70.418923 196.949383,70.0169755 C197.034213,69.822477 197.160709,69.6468749 197.320829,69.5013323 C197.492732,69.3427912 197.696227,69.218459 197.919376,69.135628 C198.179849,69.0416189 198.45681,68.9956941 198.735402,69.0003174 C199.056475,68.9970061 199.375463,69.0496862 199.676526,69.1557417 C199.954168,69.2575372 200.207931,69.4103972 200.423267,69.6055581 L200.225034,69.9730909 Z" id="Path"></path>
                <path d="M209.564465,69.0021247 L209.564465,75 L208.881422,75 L208.881422,70.5923287 C208.881422,70.534333 208.881422,70.4707249 208.881422,70.4052459 C208.881422,70.3397669 208.881422,70.2705462 208.895802,70.2013256 L206.91857,73.9429821 C206.871148,74.0595927 206.759768,74.1339033 206.638162,74.1300649 L206.524921,74.1300649 C206.403086,74.1331094 206.291575,74.0591848 206.242716,73.9429821 L204.224142,70.1770048 C204.239905,70.3129761 204.248307,70.4497627 204.249307,70.5867162 L204.249307,74.9943875 L203.564465,74.9943875 L203.564465,69.0021247 L204.13966,69.0021247 C204.194275,69.0004144 204.248822,69.0073534 204.301434,69.0227038 C204.349234,69.0480567 204.387283,69.0896384 204.409283,69.140566 L206.400894,72.8317101 C206.433249,72.8990599 206.463806,72.9682805 206.494364,73.0412428 C206.524921,73.1142051 206.553681,73.1871674 206.580643,73.2620006 C206.607605,73.1871674 206.636365,73.1123343 206.665124,73.039372 C206.693884,72.9664097 206.728036,72.8953182 206.762189,72.8279684 L208.719648,69.1386952 C208.740602,69.0870451 208.778953,69.045134 208.827497,69.020833 C208.880109,69.0054825 208.934656,68.9985436 208.989271,69.0002539 L209.564465,69.0021247 Z" id="Path"></path>
                <polygon id="Path" points="215.564465 75 214.564465 75 214.564465 69 215.564465 69"></polygon>
                <polygon id="Path" points="222.564465 69.6830942 220.910282 69.6830942 220.910282 75 220.22343 75 220.22343 69.6830942 218.564465 69.6830942 218.564465 69 222.564465 69"></polygon>
                <polygon id="Path" points="231.564465 69 231.564465 75 230.896259 75 230.896259 72.2694947 228.232672 72.2694947 228.232672 75 227.564465 75 227.564465 69 228.232672 69 228.232672 71.6762321 230.896259 71.6762321 230.896259 69"></polygon>
                <path d="M239.225034,69.9730909 C239.202911,70.0087425 239.174229,70.0403289 239.140352,70.0663456 C239.107731,70.086394 239.069487,70.0965932 239.03065,70.0956019 C238.967179,70.0905291 238.907116,70.0661645 238.859362,70.0261181 C238.79136,69.9810145 238.708602,69.9298159 238.61109,69.8725223 C238.4969,69.811143 238.377085,69.7597336 238.253116,69.7189264 C238.089586,69.6693838 237.918552,69.6459051 237.746949,69.6494426 C237.579479,69.6462558 237.412719,69.6710115 237.254255,69.7225835 C237.122574,69.7639812 237.000885,69.8298693 236.896281,69.9164068 C236.802603,69.9958712 236.728372,70.0938579 236.678802,70.2034847 C236.628854,70.319492 236.603983,70.4438611 236.605668,70.569189 C236.599652,70.7146831 236.644298,70.8580023 236.732691,70.9769494 C236.824208,71.0896258 236.938774,71.1835456 237.069494,71.2530562 C237.219491,71.3346512 237.378201,71.4008507 237.542943,71.4505365 L238.085677,71.6333887 C238.278136,71.6919014 238.451349,71.7595567 238.628411,71.8345261 C238.800182,71.906886 238.959728,72.0030115 239.10186,72.1197755 C239.243002,72.2363582 239.357048,72.3795843 239.436739,72.5403355 C239.527206,72.733438 239.570626,72.9434519 239.563762,73.1547188 C239.565216,73.4013983 239.518897,73.6462276 239.427116,73.8769848 C239.337661,74.0971828 239.200637,74.2971302 239.024877,74.4639403 C238.838168,74.6353284 238.616892,74.7690551 238.374366,74.8570725 C238.093681,74.9559553 237.796072,75.004321 237.496753,74.9996972 C237.121189,75.0039638 236.748835,74.9335839 236.403586,74.7930742 C236.086792,74.6626337 235.801282,74.4722548 235.564465,74.2335466 L235.805039,73.8586996 C235.827838,73.8281911 235.856585,73.8021208 235.889721,73.7819017 C235.922123,73.7612083 235.960383,73.750367 235.999423,73.7508168 C236.045263,73.7538107 236.089288,73.7690204 236.126445,73.7947014 C236.17456,73.8239577 236.228449,73.8586996 236.288111,73.9025841 C236.347773,73.9464687 236.417058,73.9940102 236.494042,74.0470374 C236.797444,74.2430047 237.15685,74.3457637 237.523697,74.3414294 C237.703516,74.3436776 237.882446,74.317096 238.052959,74.2628029 C238.195812,74.2156509 238.326861,74.1409463 238.437877,74.0433803 C238.545734,73.9503884 238.629966,73.8353488 238.684224,73.7069323 C238.743526,73.567579 238.77297,73.4183855 238.770831,73.2680871 C238.777868,73.113926 238.733407,72.9615996 238.643808,72.8328989 C238.555777,72.7165969 238.442164,72.6198862 238.310854,72.5494781 C238.161173,72.4677628 238.002378,72.402141 237.837405,72.3538262 L237.294671,72.1910878 C237.102212,72.1344036 236.928999,72.0704054 236.751937,71.9972645 C236.578972,71.9262529 236.419123,71.8293277 236.278488,71.7101866 C236.135298,71.5874642 236.021157,71.4372631 235.943609,71.2695129 C235.773912,70.8675653 235.773912,70.418923 235.943609,70.0169755 C236.02917,69.822854 236.15557,69.6473855 236.315055,69.5013323 C236.486959,69.3427912 236.690453,69.218459 236.913602,69.135628 C237.174075,69.0416189 237.451037,68.9956941 237.729628,69.0003174 C238.050701,68.9970061 238.369689,69.0496862 238.670752,69.1557417 C238.948624,69.2571028 239.202472,69.4100142 239.417493,69.6055581 L239.225034,69.9730909 Z" id="Path"></path>
            </g>
        </g>
    </g>
</svg>